<svg id="Ebene_1" data-name="Ebene 1" xmlns="http://www.w3.org/2000/svg" viewBox="0 0 769 771"><defs><style>.cls-1{fill:#59cfc3;}</style></defs><title>logo</title><path class="cls-1" d="M754.56,7.59H12.82C6,7.59,6,7.59,6,14.26V756c0,6.64,0,6.64,6.84,6.64H754.6c6.55,0,6.55,0,6.55-6.43V14C761.15,7.59,761.14,7.59,754.56,7.59Zm-14.31,727.3c0,7.36,0,7.36-7.33,7.36H33.69c-7.17,0-7.18,0-7.18-7.07V35c0-6.44,0-6.45,6.68-6.45H733.41c6.83,0,6.83,0,6.83,6.67V734.89Z"/><path class="cls-1" d="M551.08,135.83q-8.31,41.08-16.29,82.23c-9.64,49.3-18.89,98.67-28.93,147.88-8.21,40.25-14.7,80.86-24.8,120.71-6.2,24.46-14.2,48.18-29.87,68.64s-35.77,34.06-59.47,43c-27.56,10.36-56.28,13.24-85.41,12-42.64-1.77-83-12.78-121.12-31.88-2.36-1.18-3.22-2.47-2.73-5q9.61-50.19,19.15-100.39a35.6,35.6,0,0,1,1.19-4.2c4.24,4.61,8.08,8.91,12,13.1,18.41,19.45,39.57,34.71,65.75,41.81,23.58,6.4,47.25,7.2,70.69-1,14.52-5.07,24.2-15.34,31-28.8,8.66-17.17,12.24-35.79,15.87-54.42q10.63-54.6,21.38-109.16,11.17-56.81,22.44-113.53c.93-4.67-1.56-4.39-4.64-4.38h-102c-6.65,0-6.52,0-5.25-6.34,4.79-23.79,9.6-47.58,14.13-71.42.81-4.3,3.27-4.16,6.42-4.16H521.56c8.33,0,16.67.23,25-.09C551,130.27,551.94,131.58,551.08,135.83Z"/></svg>