<svg id="Ebene_1" data-name="Ebene 1" xmlns="http://www.w3.org/2000/svg" viewBox="0 0 1000 1000"><defs><style>.cls-1{fill:#fefefe;}.cls-2{fill:#59cfc3;}</style></defs><title>logo</title><path class="cls-1" d="M499.91,886.66q-194.7,0-389.41.1c-3.75,0-4.59-.85-4.59-4.59q.15-382.41,0-764.82c0-3.75.84-4.59,4.59-4.59q389.42.15,778.82,0c3.74,0,4.59.84,4.59,4.59q-.15,382.41,0,764.82c0,3.74-.85,4.59-4.59,4.59Q694.61,886.6,499.91,886.66Z"/><path class="cls-2" d="M499.44,120.77H870.31c6.58,0,6.59,0,6.59,6.37V869.37c0,6.43,0,6.43-6.55,6.43H128.62c-6.83,0-6.84,0-6.84-6.64V127.44c0-6.67,0-6.67,6.79-6.67Z"/><path class="cls-1" d="M856,498.21V848.07c0,7.36,0,7.36-7.33,7.36H149.44c-7.17,0-7.18,0-7.18-7.07V148.14c0-6.44,0-6.45,6.68-6.45H849.16c6.83,0,6.83,0,6.83,6.67Z"/><path class="cls-2" d="M318.55,582c4.24,4.61,8.08,8.91,12,13.1,18.41,19.45,39.57,34.71,65.75,41.81,23.58,6.4,47.25,7.2,70.69-1,14.52-5.07,24.2-15.34,31-28.8,8.66-17.17,12.24-35.79,15.87-54.42q10.64-54.6,21.38-109.16Q546.42,386.72,557.68,330c.93-4.67-1.56-4.39-4.64-4.38q-51,0-101.95,0c-6.65,0-6.52,0-5.25-6.34,4.79-23.79,9.6-47.58,14.13-71.42.81-4.3,3.27-4.16,6.42-4.16q85.46,0,170.92,0c8.33,0,16.67.23,25-.09,4.4-.16,5.38,1.15,4.52,5.4q-8.31,41.08-16.29,82.23c-9.64,49.3-18.89,98.67-28.93,147.88-8.21,40.25-14.7,80.86-24.8,120.71-6.2,24.46-14.2,48.18-29.87,68.64s-35.77,34.06-59.47,43c-27.56,10.36-56.28,13.24-85.41,12-42.64-1.77-83-12.78-121.12-31.88-2.36-1.18-3.22-2.47-2.73-5q9.62-50.19,19.15-100.39C317.59,584.94,318,583.74,318.55,582Z"/></svg>