<!-- Generated by IcoMoon.io -->
<svg version="1.1" xmlns="http://www.w3.org/2000/svg" width="32" height="32" viewBox="0 0 32 32">
<title>swipe</title>
<path fill="#fff" d="M2.885,26.667a1.2,1.2,0,0,0,1.177-1.216C4.256,17.52,8.347,11.634,14.58,9.338l4.226,11.617a.174.174,0,0,1-.077.212.2.2,0,0,1-.193-.077L16.49,18.871a3.2,3.2,0,0,0-4.651-.463c-1.582,1.351-1.621,3.377-.058,5.268L17.9,31.067c4.67,5.654,10.131,7.391,16.229,5.172,7.352-2.682,10.479-9.4,7.526-17.465l-1.389-3.8c-1.447-3.995-4.168-5.635-7.41-4.516a3.066,3.066,0,0,0-3.647-.984,6.161,6.161,0,0,0-1.409.811,3.322,3.322,0,0,0-3.917-1.119,4.484,4.484,0,0,0-1.119.6L20.7,4.069A3.666,3.666,0,0,0,15.815,1.7,3.649,3.649,0,0,0,13.6,6.655l.135.367C6.61,9.666,1.65,16.536,1.65,25.413A1.26,1.26,0,0,0,2.885,26.667Zm30.452,7.082c-4.863,1.756-9.321.849-13.528-4.226l-6.137-7.391c-.637-.753-.637-1.486-.058-1.968a1.293,1.293,0,0,1,1.853.27L19.713,24.8a1.713,1.713,0,0,0,1.988.6,1.366,1.366,0,0,0,.733-1.853L15.912,5.652a1.229,1.229,0,0,1,.753-1.66,1.2,1.2,0,0,1,1.6.791l4.651,12.756a1.162,1.162,0,0,0,1.525.675,1.139,1.139,0,0,0,.714-1.486L23.5,12.174a2.475,2.475,0,0,1,.926-.6,1.369,1.369,0,0,1,1.872.946l1.467,3.995a1.145,1.145,0,0,0,1.525.675A1.162,1.162,0,0,0,30,15.706l-1.177-3.223a2.475,2.475,0,0,1,.926-.6,1.369,1.369,0,0,1,1.872.946l.984,2.682a1.194,1.194,0,0,0,2.239-.83l-.695-1.91c1.486-.56,2.914.695,3.9,3.4L39.2,19.353C41.713,26.262,39.416,31.53,33.337,33.749Z"/>
</svg>
