<svg xmlns="http://www.w3.org/2000/svg" xmlns:xlink="http://www.w3.org/1999/xlink" viewBox="0 0 3629.64 2951.96"><defs><style>.cls-1{fill:url(#Áĺçűě_ííűé_ăđŕäčĺíň_5462);}.cls-2{fill:url(#Áĺçűě_ííűé_ăđŕäčĺíň_5514);}.cls-3{fill:url(#Áĺçűě_ííűé_ăđŕäčĺíň_5563);}.cls-4{fill:url(#Áĺçűě_ííűé_ăđŕäčĺíň_5563-2);}.cls-5{fill:url(#Áĺçűě_ííűé_ăđŕäčĺíň_5514-2);}.cls-6{fill:url(#Áĺçűě_ííűé_ăđŕäčĺíň_5563-3);}.cls-7{fill:url(#Áĺçűě_ííűé_ăđŕäčĺíň_2);}.cls-8{fill:url(#Áĺçűě_ííűé_ăđŕäčĺíň_5530);}.cls-9{fill:url(#Áĺçűě_ííűé_ăđŕäčĺíň_5508);}.cls-10,.cls-65{fill:#fff;}.cls-11{fill:url(#Áĺçűě_ííűé_ăđŕäčĺíň_3);}.cls-12{fill:url(#Áĺçűě_ííűé_ăđŕäčĺíň_5514-3);}.cls-13{fill:url(#Áĺçűě_ííűé_ăđŕäčĺíň_5508-2);}.cls-14{fill:url(#Áĺçűě_ííűé_ăđŕäčĺíň_5508-3);}.cls-15{fill:url(#Áĺçűě_ííűé_ăđŕäčĺíň_11);}.cls-16{fill:url(#Áĺçűě_ííűé_ăđŕäčĺíň_11-2);}.cls-17{fill:url(#Áĺçűě_ííűé_ăđŕäčĺíň_11-3);}.cls-18{fill:url(#Áĺçűě_ííűé_ăđŕäčĺíň_11-4);}.cls-19{fill:url(#Áĺçűě_ííűé_ăđŕäčĺíň_11-5);}.cls-20{fill:url(#Áĺçűě_ííűé_ăđŕäčĺíň_11-6);}.cls-21{fill:url(#Áĺçűě_ííűé_ăđŕäčĺíň_11-7);}.cls-22{fill:url(#Áĺçűě_ííűé_ăđŕäčĺíň_11-8);}.cls-23{fill:url(#Áĺçűě_ííűé_ăđŕäčĺíň_11-9);}.cls-24{fill:url(#Áĺçűě_ííűé_ăđŕäčĺíň_11-10);}.cls-25{fill:url(#Áĺçűě_ííűé_ăđŕäčĺíň_11-11);}.cls-26{fill:url(#Áĺçűě_ííűé_ăđŕäčĺíň_11-12);}.cls-27{fill:url(#Áĺçűě_ííűé_ăđŕäčĺíň_11-13);}.cls-28{fill:url(#Áĺçűě_ííűé_ăđŕäčĺíň_5508-4);}.cls-29{fill:url(#Áĺçűě_ííűé_ăđŕäčĺíň_11-14);}.cls-30{fill:url(#Áĺçűě_ííűé_ăđŕäčĺíň_11-15);}.cls-31{fill:url(#Áĺçűě_ííűé_ăđŕäčĺíň_11-16);}.cls-32{fill:url(#Áĺçűě_ííűé_ăđŕäčĺíň_11-17);}.cls-33{fill:url(#Áĺçűě_ííűé_ăđŕäčĺíň_11-18);}.cls-34{fill:url(#Áĺçűě_ííűé_ăđŕäčĺíň_5530-2);}.cls-35{fill:url(#Áĺçűě_ííűé_ăđŕäčĺíň_5530-3);}.cls-36{fill:url(#Áĺçűě_ííűé_ăđŕäčĺíň_5530-4);}.cls-37{fill:url(#Áĺçűě_ííűé_ăđŕäčĺíň_3-2);}.cls-38{fill:url(#Áĺçűě_ííűé_ăđŕäčĺíň_57);}.cls-39{fill:url(#Áĺçűě_ííűé_ăđŕäčĺíň_3-3);}.cls-40{fill:url(#Áĺçűě_ííűé_ăđŕäčĺíň_5530-5);}.cls-41{fill:url(#Áĺçűě_ííűé_ăđŕäčĺíň_349);}.cls-42{fill:url(#Áĺçűě_ííűé_ăđŕäčĺíň_5530-6);}.cls-43{fill:url(#Áĺçűě_ííűé_ăđŕäčĺíň_5514-4);}.cls-44,.cls-46,.cls-65{opacity:0.4;}.cls-44{fill:url(#Áĺçűě_ííűé_ăđŕäčĺíň_21);}.cls-45,.cls-47{opacity:0.25;}.cls-45{fill:url(#Áĺçűě_ííűé_ăđŕäčĺíň_21-2);}.cls-46{fill:url(#Áĺçűě_ííűé_ăđŕäčĺíň_21-3);}.cls-47{fill:url(#Áĺçűě_ííűé_ăđŕäčĺíň_21-4);}.cls-48{fill:url(#Áĺçűě_ííűé_ăđŕäčĺíň_54);}.cls-49{fill:#efbc90;}.cls-50{fill:#f4caab;}.cls-51{fill:#3d4166;}.cls-52{fill:url(#Áĺçűě_ííűé_ăđŕäčĺíň_5504);}.cls-53{fill:url(#Áĺçűě_ííűé_ăđŕäčĺíň_5504-2);}.cls-54{fill:url(#Áĺçűě_ííűé_ăđŕäčĺíň_5508-5);}.cls-55{fill:#dbc6af;}.cls-56{fill:url(#Áĺçűě_ííűé_ăđŕäčĺíň_5508-6);}.cls-57{fill:url(#Áĺçűě_ííűé_ăđŕäčĺíň_5508-7);}.cls-58{fill:url(#Áĺçűě_ííűé_ăđŕäčĺíň_5504-3);}.cls-59{fill:url(#Áĺçűě_ííűé_ăđŕäčĺíň_5504-4);}.cls-60{fill:url(#Áĺçűě_ííűé_ăđŕäčĺíň_5508-8);}.cls-61{fill:#76d3f4;}.cls-62{fill:url(#Áĺçűě_ííűé_ăđŕäčĺíň_5508-9);}.cls-63{fill:url(#Áĺçűě_ííűé_ăđŕäčĺíň_5508-10);}.cls-64{opacity:0.3;fill:url(#Áĺçűě_ííűé_ăđŕäčĺíň_5462-2);}.cls-66{fill:url(#Áĺçűě_ííűé_ăđŕäčĺíň_5504-5);}.cls-67{fill:url(#Áĺçűě_ííűé_ăđŕäčĺíň_5504-6);}.cls-68{fill:url(#Áĺçűě_ííűé_ăđŕäčĺíň_37);}.cls-69{fill:url(#Áĺçűě_ííűé_ăđŕäčĺíň_37-2);}</style><linearGradient id="Áĺçűě_ííűé_ăđŕäčĺíň_5462" x1="1797.26" y1="-351.89" x2="1797.26" y2="3585.9" gradientUnits="userSpaceOnUse"><stop offset="0.29" stop-color="#fdfbef"/><stop offset="1" stop-color="#f6d9c9"/></linearGradient><linearGradient id="Áĺçűě_ííűé_ăđŕäčĺíň_5514" x1="1141.24" y1="863.35" x2="525.85" y2="2413.46" gradientUnits="userSpaceOnUse"><stop offset="0" stop-color="#bcbf82"/><stop offset="1" stop-color="#5ea88f"/></linearGradient><linearGradient id="Áĺçűě_ííűé_ăđŕäčĺíň_5563" x1="1329.83" y1="2514.06" x2="298.64" y2="967.28" gradientUnits="userSpaceOnUse"><stop offset="0" stop-color="#5ea88f"/><stop offset="1" stop-color="#556d80"/></linearGradient><linearGradient id="Áĺçűě_ííűé_ăđŕäčĺíň_5563-2" x1="336.62" y1="1857.18" x2="1180.62" y2="2219.18" xlink:href="#Áĺçűě_ííűé_ăđŕäčĺíň_5563"/><linearGradient id="Áĺçűě_ííűé_ăđŕäčĺíň_5514-2" x1="3600.38" y1="1162.28" x2="2685.29" y2="1636.32" xlink:href="#Áĺçűě_ííűé_ăđŕäčĺíň_5514"/><linearGradient id="Áĺçűě_ííűé_ăđŕäčĺíň_5563-3" x1="2867.31" y1="2228.28" x2="3517.31" y2="1550.27" xlink:href="#Áĺçűě_ííűé_ăđŕäčĺíň_5563"/><linearGradient id="Áĺçűě_ííűé_ăđŕäčĺíň_2" x1="1951.58" y1="2412.81" x2="1951.58" y2="-38.2" gradientUnits="userSpaceOnUse"><stop offset="0.03" stop-color="#fdf7e2"/><stop offset="1" stop-color="#fce1aa"/></linearGradient><linearGradient id="Áĺçűě_ííűé_ăđŕäčĺíň_5530" x1="1914.56" y1="2324.81" x2="1914.56" y2="629.62" gradientUnits="userSpaceOnUse"><stop offset="0" stop-color="#fce1aa"/><stop offset="1" stop-color="#fcce79"/></linearGradient><linearGradient id="Áĺçűě_ííűé_ăđŕäčĺíň_5508" x1="499.89" y1="2489.94" x2="3542.72" y2="2489.94" gradientUnits="userSpaceOnUse"><stop offset="0" stop-color="#79bada"/><stop offset="1" stop-color="#555ea3"/></linearGradient><linearGradient id="Áĺçűě_ííűé_ăđŕäčĺíň_3" x1="368.29" y1="2203.77" x2="1356.13" y2="3299.53" gradientUnits="userSpaceOnUse"><stop offset="0" stop-color="#ffe2e4"/><stop offset="1" stop-color="#a4b8ea"/></linearGradient><linearGradient id="Áĺçűě_ííűé_ăđŕäčĺíň_5514-3" x1="1328.4" y1="2118.35" x2="2155.46" y2="3035.77" xlink:href="#Áĺçűě_ííűé_ăđŕäčĺíň_5514"/><linearGradient id="Áĺçűě_ííűé_ăđŕäčĺíň_5508-2" x1="1829.84" y1="2740.94" x2="3457.81" y2="2740.94" xlink:href="#Áĺçűě_ííűé_ăđŕäčĺíň_5508"/><linearGradient id="Áĺçűě_ííűé_ăđŕäčĺíň_5508-3" x1="1829.84" y1="2623.16" x2="3457.82" y2="2623.16" xlink:href="#Áĺçűě_ííűé_ăđŕäčĺíň_5508"/><linearGradient id="Áĺçűě_ííűé_ăđŕäčĺíň_11" x1="57.94" y1="2425.73" x2="4421.65" y2="2425.73" gradientUnits="userSpaceOnUse"><stop offset="0" stop-color="#e0eff6"/><stop offset="1" stop-color="#81abd0"/></linearGradient><linearGradient id="Áĺçűě_ííűé_ăđŕäčĺíň_11-2" x1="57.94" y1="2589.36" x2="4421.65" y2="2589.36" xlink:href="#Áĺçűě_ííűé_ăđŕäčĺíň_11"/><linearGradient id="Áĺçűě_ííűé_ăđŕäčĺíň_11-3" x1="57.94" y1="2508.64" x2="4421.66" y2="2508.64" xlink:href="#Áĺçűě_ííűé_ăđŕäčĺíň_11"/><linearGradient id="Áĺçűě_ííűé_ăđŕäčĺíň_11-4" x1="57.94" y1="2293.51" x2="4421.64" y2="2293.51" xlink:href="#Áĺçűě_ííűé_ăđŕäčĺíň_11"/><linearGradient id="Áĺçűě_ííűé_ăđŕäčĺíň_11-5" x1="57.94" y1="2277.87" x2="4421.65" y2="2277.87" xlink:href="#Áĺçűě_ííűé_ăđŕäčĺíň_11"/><linearGradient id="Áĺçűě_ííűé_ăđŕäčĺíň_11-6" x1="57.94" y1="2282.69" x2="4421.66" y2="2282.69" xlink:href="#Áĺçűě_ííűé_ăđŕäčĺíň_11"/><linearGradient id="Áĺçűě_ííűé_ăđŕäčĺíň_11-7" x1="57.94" y1="2282.69" x2="4421.64" y2="2282.69" xlink:href="#Áĺçűě_ííűé_ăđŕäčĺíň_11"/><linearGradient id="Áĺçűě_ííűé_ăđŕäčĺíň_11-8" x1="57.95" y1="2282.69" x2="4421.65" y2="2282.69" xlink:href="#Áĺçűě_ííűé_ăđŕäčĺíň_11"/><linearGradient id="Áĺçűě_ííűé_ăđŕäčĺíň_11-9" x1="57.94" y1="2430.19" x2="4421.65" y2="2430.19" xlink:href="#Áĺçűě_ííűé_ăđŕäčĺíň_11"/><linearGradient id="Áĺçűě_ííűé_ăđŕäčĺíň_11-10" x1="57.94" y1="2495.21" x2="4421.65" y2="2495.21" xlink:href="#Áĺçűě_ííűé_ăđŕäčĺíň_11"/><linearGradient id="Áĺçűě_ííűé_ăđŕäčĺíň_11-11" x1="57.94" y1="2560.23" x2="4421.66" y2="2560.23" xlink:href="#Áĺçűě_ííűé_ăđŕäčĺíň_11"/><linearGradient id="Áĺçűě_ííűé_ăđŕäčĺíň_11-12" x1="57.94" y1="2417.08" x2="4421.65" y2="2417.08" xlink:href="#Áĺçűě_ííűé_ăđŕäčĺíň_11"/><linearGradient id="Áĺçűě_ííűé_ăđŕäčĺíň_11-13" x1="57.94" y1="2417.08" x2="4421.65" y2="2417.08" xlink:href="#Áĺçűě_ííűé_ăđŕäčĺíň_11"/><linearGradient id="Áĺçűě_ííűé_ăđŕäčĺíň_5508-4" x1="1546.12" y1="2691.65" x2="2015.66" y2="2691.65" xlink:href="#Áĺçűě_ííűé_ăđŕäčĺíň_5508"/><linearGradient id="Áĺçűě_ííűé_ăđŕäčĺíň_11-14" x1="57.93" y1="2761.87" x2="4421.65" y2="2761.87" xlink:href="#Áĺçűě_ííűé_ăđŕäčĺíň_11"/><linearGradient id="Áĺçűě_ííűé_ăđŕäčĺíň_11-15" x1="57.94" y1="2732.48" x2="4421.66" y2="2732.48" xlink:href="#Áĺçűě_ííűé_ăđŕäčĺíň_11"/><linearGradient id="Áĺçűě_ííűé_ăđŕäčĺíň_11-16" x1="57.93" y1="2703.96" x2="4421.65" y2="2703.96" xlink:href="#Áĺçűě_ííűé_ăđŕäčĺíň_11"/><linearGradient id="Áĺçűě_ííűé_ăđŕäčĺíň_11-17" x1="57.94" y1="2621.68" x2="4421.66" y2="2621.68" xlink:href="#Áĺçűě_ííűé_ăđŕäčĺíň_11"/><linearGradient id="Áĺçűě_ííűé_ăđŕäčĺíň_11-18" x1="57.93" y1="2579.49" x2="4421.65" y2="2579.49" xlink:href="#Áĺçűě_ííűé_ăđŕäčĺíň_11"/><linearGradient id="Áĺçűě_ííűé_ăđŕäčĺíň_5530-2" x1="391.5" y1="2448.33" x2="3228.55" y2="2448.33" xlink:href="#Áĺçűě_ííűé_ăđŕäčĺíň_5530"/><linearGradient id="Áĺçűě_ííűé_ăđŕäčĺíň_5530-3" x1="391.5" y1="2215.15" x2="3228.55" y2="2215.15" xlink:href="#Áĺçűě_ííűé_ăđŕäčĺíň_5530"/><linearGradient id="Áĺçűě_ííűé_ăđŕäčĺíň_5530-4" x1="391.5" y1="2750.24" x2="3228.55" y2="2750.24" xlink:href="#Áĺçűě_ííűé_ăđŕäčĺíň_5530"/><linearGradient id="Áĺçűě_ííűé_ăđŕäčĺíň_3-2" x1="682.19" y1="1920.78" x2="1670.04" y2="3016.55" xlink:href="#Áĺçűě_ííűé_ăđŕäčĺíň_3"/><linearGradient id="Áĺçűě_ííűé_ăđŕäčĺíň_57" x1="391.5" y1="2688.76" x2="3228.54" y2="2688.76" gradientUnits="userSpaceOnUse"><stop offset="0" stop-color="#ffe2e4"/><stop offset="1" stop-color="#ffc1c2"/></linearGradient><linearGradient id="Áĺçűě_ííűé_ăđŕäčĺíň_3-3" x1="1320.8" y1="2125.2" x2="2147.87" y2="3042.62" xlink:href="#Áĺçűě_ííűé_ăđŕäčĺíň_3"/><linearGradient id="Áĺçűě_ííűé_ăđŕäčĺíň_5530-5" x1="391.5" y1="2568.44" x2="3228.54" y2="2568.44" xlink:href="#Áĺçűě_ííűé_ăđŕäčĺíň_5530"/><linearGradient id="Áĺçűě_ííűé_ăđŕäčĺíň_349" x1="1829.84" y1="2710.43" x2="3457.82" y2="2710.43" gradientUnits="userSpaceOnUse"><stop offset="0" stop-color="#7a8fd8"/><stop offset="1" stop-color="#435ac2"/></linearGradient><linearGradient id="Áĺçűě_ííűé_ăđŕäčĺíň_5530-6" x1="391.5" y1="2710.43" x2="3228.54" y2="2710.43" xlink:href="#Áĺçűě_ííűé_ăđŕäčĺíň_5530"/><linearGradient id="Áĺçűě_ííűé_ăđŕäčĺíň_5514-4" x1="1859.1" y1="1767.72" x2="2787.33" y2="2797.35" xlink:href="#Áĺçűě_ííűé_ăđŕäčĺíň_5514"/><linearGradient id="Áĺçűě_ííűé_ăđŕäčĺíň_21" x1="1232.73" y1="2393.87" x2="-1360.95" y2="3009.87" gradientUnits="userSpaceOnUse"><stop offset="0" stop-color="#fff"/><stop offset="1" stop-color="#e7ecf9"/></linearGradient><linearGradient id="Áĺçűě_ííűé_ăđŕäčĺíň_21-2" x1="2929.48" y1="2836.53" x2="1227.63" y2="2390.8" xlink:href="#Áĺçűě_ííűé_ăđŕäčĺíň_21"/><linearGradient id="Áĺçűě_ííűé_ăđŕäčĺíň_21-3" x1="2422.13" y1="2445.44" x2="-241.8" y2="2974.98" xlink:href="#Áĺçűě_ííűé_ăđŕäčĺíň_21"/><linearGradient id="Áĺçűě_ííűé_ăđŕäčĺíň_21-4" x1="4749.11" y1="2834.58" x2="2696.09" y2="2429.38" xlink:href="#Áĺçűě_ííűé_ăđŕäčĺíň_21"/><linearGradient id="Áĺçűě_ííűé_ăđŕäčĺíň_54" x1="1911.4" y1="2498.63" x2="1911.4" y2="631.35" gradientUnits="userSpaceOnUse"><stop offset="0" stop-color="#e57f54"/><stop offset="1" stop-color="#d8513e"/></linearGradient><linearGradient id="Áĺçűě_ííűé_ăđŕäčĺíň_5504" x1="2463.86" y1="2505.55" x2="2678.86" y2="2491.55" gradientUnits="userSpaceOnUse"><stop offset="0" stop-color="#555ea3"/><stop offset="1" stop-color="#51537a"/></linearGradient><linearGradient id="Áĺçűě_ííűé_ăđŕäčĺíň_5504-2" x1="2603.1" y1="2471.64" x2="2916.1" y2="2389.64" xlink:href="#Áĺçűě_ííűé_ăđŕäčĺíň_5504"/><linearGradient id="Áĺçűě_ííűé_ăđŕäčĺíň_5508-5" x1="2429" y1="1968.2" x2="2674.99" y2="2082.2" xlink:href="#Áĺçűě_ííűé_ăđŕäčĺíň_5508"/><linearGradient id="Áĺçűě_ííűé_ăđŕäčĺíň_5508-6" x1="2561.46" y1="2079.85" x2="2775.08" y2="2052.11" xlink:href="#Áĺçűě_ííűé_ăđŕäčĺíň_5508"/><linearGradient id="Áĺçűě_ííűé_ăđŕäčĺíň_5508-7" x1="2689.49" y1="2111.67" x2="2812.16" y2="2071.67" xlink:href="#Áĺçűě_ííűé_ăđŕäčĺíň_5508"/><linearGradient id="Áĺçűě_ííűé_ăđŕäčĺíň_5504-3" x1="1153.85" y1="2419.73" x2="1006.12" y2="2434.3" xlink:href="#Áĺçűě_ííűé_ăđŕäčĺíň_5504"/><linearGradient id="Áĺçűě_ííűé_ăđŕäčĺíň_5504-4" x1="1025" y1="2449.14" x2="845" y2="2402.14" xlink:href="#Áĺçűě_ííűé_ăđŕäčĺíň_5504"/><linearGradient id="Áĺçűě_ííűé_ăđŕäčĺíň_5508-8" x1="1164.27" y1="2000.08" x2="1055.27" y2="2040.08" xlink:href="#Áĺçűě_ííűé_ăđŕäčĺíň_5508"/><linearGradient id="Áĺçűě_ííűé_ăđŕäčĺíň_5508-9" x1="1109" y1="2031.81" x2="911.67" y2="2008.48" xlink:href="#Áĺçűě_ííűé_ăđŕäčĺíň_5508"/><linearGradient id="Áĺçűě_ííűé_ăđŕäčĺíň_5508-10" x1="987.32" y1="2064.75" x2="860.32" y2="2027.75" xlink:href="#Áĺçűě_ííűé_ăđŕäčĺíň_5508"/><linearGradient id="Áĺçűě_ííűé_ăđŕäčĺíň_5462-2" x1="-2923" y1="1309.84" x2="-2719.26" y2="1309.84" gradientTransform="matrix(-0.98, -0.17, -0.17, 0.98, -1098.9, 287.71)" xlink:href="#Áĺçűě_ííűé_ăđŕäčĺíň_5462"/><linearGradient id="Áĺçűě_ííűé_ăđŕäčĺíň_5504-5" x1="-1832.1" y1="-1125.77" x2="-1781.5" y2="-1125.77" gradientTransform="matrix(-0.71, -0.71, -0.71, 0.71, -778.51, 1742.59)" xlink:href="#Áĺçűě_ííűé_ăđŕäčĺíň_5504"/><linearGradient id="Áĺçűě_ííűé_ăđŕäčĺíň_5504-6" x1="1336.6" y1="2067.34" x2="1567.23" y2="2067.34" xlink:href="#Áĺçűě_ííűé_ăđŕäčĺíň_5504"/><linearGradient id="Áĺçűě_ííűé_ăđŕäčĺíň_37" x1="-1827.69" y1="-1204.71" x2="-1785.91" y2="-1204.71" gradientTransform="matrix(-0.71, -0.71, -0.71, 0.71, -778.51, 1742.59)" gradientUnits="userSpaceOnUse"><stop offset="0" stop-color="#fcce79"/><stop offset="1" stop-color="#e3a76b"/></linearGradient><linearGradient id="Áĺçűě_ííűé_ăđŕäčĺíň_37-2" x1="-1828.34" y1="-1178.83" x2="-1785.26" y2="-1178.83" xlink:href="#Áĺçűě_ííűé_ăđŕäčĺíň_37"/></defs><title>Element 1</title><g id="Ebene_2" data-name="Ebene 2"><g id="Ńëîé_1" data-name="Ńëîé 1"><path class="cls-1" d="M2909.33,824.53a16.74,16.74,0,0,1-10.43-15.48h0c0-446.82-362.23-809-809.06-809C1776.62,0,1505,178,1370.52,438.37a76.76,76.76,0,0,1-74,41.26q-45.29-3.42-91.48-3.44C536.9,476.19-4.25,1020,0,1689.12c4.24,665.52,544,1199.63,1209.56,1197.18a1207.23,1207.23,0,0,0,288-35.74c200.55-50,411.8-40.42,605.43,31.9A1102.47,1102.47,0,0,0,2484.44,2952c608.53,2.74,1106.63-490.08,1110.06-1098.61C3597.11,1389,3313.25,990.56,2909.33,824.53Z"/><path class="cls-2" d="M130.14,1498.85C68,1852.78,793.29,1994,795.07,2062.68S427,2099.43,508.3,2282.62c75.35,169.73,651.94,215.59,1063.91,3.38,11.93-6.15,289.64-534.76,60-829.31s-275.09,228.83-376.83,219.25,95.45-657.59-116.33-786.49c-219.44-133.55-268,327.88-371,261.3C670.48,1087.68,595.75,437.67,337,532.13a206.18,206.18,0,0,0-28.86,13.26l-.11.05h0q-7.85,4.32-15.9,9.54C-3.28,746.35,599.3,1411.05,469,1442.45S161.64,1319.5,130.14,1498.85Z"/><path class="cls-3" d="M1411.56,2428.69s-320.56-567.87-601.9-868S306.89,1200.5,306.89,1200.5s135.82,131.57,254.91,324,200,408.64,349.22,587.22C1136.73,2381.92,1411.56,2428.69,1411.56,2428.69Z"/><path class="cls-4" d="M1303,2439.79s-280.21-360.4-505.81-539.38-385.11-197.92-385.11-197.92,107.54,77.19,209.75,198.28,180.4,262.49,302,370.86C1107.91,2435.57,1303,2439.79,1303,2439.79Z"/><path class="cls-5" d="M2618.06,2356.3c81.43-20.09,225.4-79.66,270-164.81,41.13-78.61-36.57-165.84-8.72-241.1s236.07-146.67,284.47-235.56c57.4-105.42-111-172.76-45.36-248.21s306-176,318.08-260.9-87.43-74-16.77-235.74C3479.55,833,3560.13,653.19,3462.3,589c-104.25-68.36-208.63,76.49-259.89,187.22-66,142.64-159.84,5.76-243.68,76.7-75.81,64.13-37.8,376.91-93.7,444.34s-179.26,30.71-254.55,145.9,62.9,272.88,26.34,357.66-165,64.33-217.44,184.75S2618.06,2356.3,2618.06,2356.3Z"/><path class="cls-6" d="M2490.07,2461.48c53.62,18.81,157.32,38.45,214.16,6.71,52.48-29.31,40.79-107.57,84.5-139.91s188.22,4.43,248.63-28c71.64-38.47,1.16-139.1,66.34-157.53s238.76,13.73,277.1-29.91-22.11-74.39,77.93-139.85c84.71-55.44,197.1-127.5,165.43-200.15-33.74-77.42-146.63-34-216.76,9.73-90.34,56.36-92.75-56-166.59-46.91-66.76,8.24-161.23,199.64-217.93,217.13s-113-49.09-198.41-11.72-65.57,178-117.74,212.52-117.38-24.73-191.78,24.07S2490.07,2461.48,2490.07,2461.48Z"/><polygon class="cls-7" points="2924.04 2330.26 2924.04 488.37 2854.64 381.85 2825.3 381.85 2825.3 357.12 2789.86 357.12 2789.86 269.61 2775.94 269.61 2775.94 357.12 2740.5 357.12 2740.5 381.85 2711.16 381.85 2641.76 488.37 2641.76 1004.48 2543.66 1004.48 2543.66 705.82 2554.42 705.82 2554.42 677.28 2534.51 677.28 2493.03 547.93 2342.4 547.93 2300.92 677.28 2281.01 677.28 2281.01 705.82 2291.77 705.82 2291.77 858 2208.86 858 2208.86 890.34 2160.76 890.34 2160.76 1136.68 2124.46 1136.68 2124.46 1118.61 1976.3 1118.61 1976.3 1136.68 1925.27 1136.68 1925.27 733.4 1906.92 733.4 1906.92 690.6 1724.05 690.6 1724.05 733.4 1705.7 733.4 1705.7 992.11 1576.58 992.11 1576.58 421.43 1536.5 421.43 1536.5 379.58 1499.79 379.58 1499.79 356.75 1379.96 356.75 1379.96 379.58 1343.25 379.58 1343.25 421.43 1310.76 421.43 1310.76 666.82 1254.44 666.82 1283.55 605 1016.46 605 1037.98 666.82 979.12 666.82 979.12 2330.26 2924.04 2330.26"/><polygon class="cls-8" points="3027.52 1159.78 2870.97 1159.78 2870.97 922.36 2829.3 922.36 2829.3 874.5 2782.21 874.5 2782.21 848.39 2628.5 848.39 2628.5 874.5 2581.42 874.5 2581.42 922.36 2530 922.36 2530 1640.39 2233.86 1640.39 2233.86 1294.06 2210.31 1294.06 2210.31 1245.11 2027.47 1245.11 2027.47 1294.06 2003.93 1294.06 2003.93 1501.87 1958.18 1501.87 1958.18 1481.2 1827.23 1481.2 1827.23 1501.87 1702.36 1501.87 1702.36 1220.14 1640.66 1220.14 1640.66 1183.15 1612.63 1183.15 1612.63 1009.11 1626.43 1009.11 1626.43 976.48 1600.89 976.48 1547.68 828.54 1459.48 828.54 1459.48 656.41 1439.46 656.41 1439.46 828.54 1354.46 828.54 1301.25 976.48 1275.71 976.48 1275.71 1009.11 1289.52 1009.11 1289.52 1350.67 1163.68 1350.67 1163.68 1124.41 1074.66 1002.58 1037.03 1002.58 1037.03 974.3 928.25 974.3 928.25 1002.58 890.62 1002.58 801.6 1124.41 801.6 2330.26 3027.52 2330.26 3027.52 1159.78"/><path class="cls-9" d="M3453.32,2830.38l-796.5-148.06-745.4,139.92-4.51-.85-740.74-140.2L369.49,2828l260.06-552.4,652.81-126.14,629.09,124.68,629.22-123.72,653.44,127.24Zm-2287-198.66,745.17,141,745.33-139.9,712.29,132.4-208.5-444.55L2540.72,2200l-629.31,123.73-629.17-124.69L663,2318.7,453.83,2763.05Z"/><path class="cls-10" d="M967.05,2228.65l-71.84,13.88q9.87,4.26,19.8,8.51Q941.23,2239.85,967.05,2228.65Z"/><path class="cls-10" d="M857.91,2275.22q-20.62-8.79-40.89-17.58l-170.73,33-23.74,50.43h75.27Q779.55,2308.14,857.91,2275.22Z"/><path class="cls-10" d="M1402.17,2341.06q14.1-72,28.22-144l-148.09-29.34-143.64,27.75q-161.29,72.78-339.12,145.57ZM1337.55,2272l-9.78,43.06H1050.16l14.46-43.06Z"/><path class="cls-10" d="M2019.45,2341.06q2.57-9.21,5.84-18.27a289.36,289.36,0,0,1,29.35-58.53l-119.43,23.48.3,27.3H1568.75l9.87-74.34h71.84l-144.22-28.58q-10.56,64.47-21.13,128.94Z"/><path class="cls-10" d="M3200,2341.06l-15-32H2929q-10.57-26.4-21.16-52.81h82.73l-157.79-30.73c-89.13,3.68-178.18,5.56-266.14,5.56l-15.86,0c-98.1-.25-194.89-2.8-288.79-7.61l-110.39,21.71c-24.93,32.51-40.24,65-48.38,95.86Zm-351.76-84.77q9.94,26.4,19.9,52.81h-287.5q-7-26.42-13.94-52.81Zm-328.41,52.81H2232.38l-6.72-52.81h281.53Q2513.54,2282.69,2519.87,2309.1Z"/><path class="cls-10" d="M411.66,2789,512,2770.5c-30.73-2.58-60-5.55-87.48-8.89Z"/><path class="cls-10" d="M850,2615.35c25.62-14.68,42.32-28.7,50-35.68Q778,2475,679.65,2370.29H608.78l-14.29,30.36,34.52-5.52q26.22,26.84,54,53.66-52,8.24-104.5,16.46-4.95-4.9-9.85-9.82L476,2652.3l239.35,8.06A365.49,365.49,0,0,0,850,2615.35ZM590.09,2476.61q52.7-8.24,104.8-16.47Q723,2487,752.8,2513.81,700,2522,646.57,2530.27,617.53,2503.44,590.09,2476.61Zm175.37,48.55q30.09,26.84,61.78,53.67-53.68,8.22-108,16.46-31-26.84-60.35-53.67Q712.49,2533.4,765.46,2525.16Z"/><path class="cls-10" d="M2163.82,2690.93c-6.43-16.58-15.62-31.71-24.85-44.47-18.48-25.5-39.85-45.59-51.9-56.08-227.48,10.29-451.31,30.29-650,110.79l122.13,23.12c18.91-19.17,59.22-40.46,126.51-58.07,168.92-44.58,318.52-32.24,329.11-19.67,15.77,19.84-189.1,37.26-246.9,59.86-30.44,12-56.08,28.23-81.1,42l57.07,10.8q12-4.72,24-9.44,36,8.35,72.47,16.73l-18.76,7.42,52.44,9.92c34.77-24.09,85-47.39,157.25-65.75C2076.38,2706.65,2120.43,2697.87,2163.82,2690.93Zm-329.16,63.36q-36.29-8.37-72.14-16.73,33.88-13.45,67.18-26.9,35.73,8.37,71.86,16.73Q1868.41,2740.85,1834.66,2754.29Zm106.9-28.52q-36.24-8.36-72-16.73,33.09-13.44,65.58-26.89,35.69,8.35,71.77,16.73Q1974.51,2712.32,1941.56,2725.77Z"/><path class="cls-10" d="M773.11,2370.29Q873.27,2473,996.22,2575.75l-4.36,4.79c-.87.9-20.46,22.34-60.83,46-57.56,33.71-127.55,54.77-206.51,62.61l-10.08,1q-126.51-4.2-252.27-8.41L439.45,2730c56.73,8.11,122.86,14.26,193.9,18.17l57.35-10.57c86.82-24,182.64-40.74,272.37-50.21l203.16-37.44,169.12,32q30.54-155.82,61.09-311.64Zm489.52,248.2h-217l17.58-58.26h212.58Q1269.21,2589.36,1262.63,2618.49Zm18.23-80.71H1102.91l16.89-58.27H1294Q1287.44,2508.64,1280.86,2537.78Zm-213.57-82.92,18.18-58.27h227.27q-6.59,29.14-13.16,58.27Z"/><path class="cls-10" d="M2150.5,2558.18q24.64-1,48.95-1.88c137.51-5.21,267.2-10.14,371.59-26.79,214.67-34,355.12-119.21,407.23-159.22H2097.43a232.75,232.75,0,0,0,3.07,78.45C2110.78,2498.15,2135.41,2537.8,2150.5,2558.18ZM2164.66,2411c83.19-43.08,557.3-19.28,593,1.64,25.12,15.66-55.11,44-159.62,68.37-103.86,24.38-232,44.8-287.64,44.65C2222.42,2525.46,2112,2437.56,2164.66,2411Z"/><path class="cls-10" d="M2014.38,2450.88a243.84,243.84,0,0,1-1.23-80.59H1480.32q-8.88,54.16-17.75,108.35,278.7-11,552.92-22.09C2015.09,2454.67,2014.73,2452.78,2014.38,2450.88Zm-291.67-13.32H1538.14q2.82-20.47,5.65-40.95h181.75Q1724.13,2417.09,1722.71,2437.56Zm29.55,0q1.18-20.47,2.38-40.95h181.75q.21,20.47.44,40.95Z"/><path class="cls-10" d="M2701.71,2200l-161-31.35-155,30.48C2481.15,2202,2587.32,2202.71,2701.71,2200Z"/><path class="cls-10" d="M2971.17,2440.2c-44.63,24.36-93.93,45.87-146,63.93C2759,2527,2688,2544.48,2615.49,2556c-118,18.67-256.13,23.86-402.56,29.36l-34.07,1.28a385.15,385.15,0,0,1,49.86,53.35,240,240,0,0,1,24.39,38.89c173.2-19.64,342.59-18.46,502-54.27,223.2-50.27,231.54-164.09,498.39-169.54l-39.75-84.76h-138.1C3060.66,2383.07,3026.63,2409.93,2971.17,2440.2ZM2319,2650.56q-16-18.63-31.58-37.28,141.63-10.25,281.22-20.48,17.4,18.64,35.13,37.28Q2462.45,2640.33,2319,2650.56Zm381.4-41.34q-34.72-13.8-68.83-27.61,65.14-15.93,128.71-31.86,34.45,13.82,69.5,27.62Q2765.91,2593.3,2700.44,2609.22Z"/><path class="cls-10" d="M963.07,2687.36c-89.73,9.47-185.55,26.22-272.37,50.21Z"/><path class="cls-11" d="M963.07,2687.36c-89.73,9.47-185.55,26.22-272.37,50.21Z"/><path class="cls-10" d="M2061.19,2562c-14.72-21.06-36.19-58.49-45.7-105.43h0q-274.21,11-552.92,22.09-14.74,89.91-29.47,179.81C1633.21,2591.19,1851.41,2571.9,2061.19,2562Z"/><path class="cls-12" d="M2061.19,2562c-14.72-21.06-36.19-58.49-45.7-105.43h0q-274.21,11-552.92,22.09-14.74,89.91-29.47,179.81C1633.21,2591.19,1851.41,2571.9,2061.19,2562Z"/><path class="cls-10" d="M2163.82,2690.93c-43.39,6.94-87.44,15.72-132.58,27.19-72.21,18.36-122.48,41.66-157.25,65.75l37.44,7.09,260.8-49C2173.71,2724.2,2170,2706.9,2163.82,2690.93Z"/><path class="cls-13" d="M2163.82,2690.93c-43.39,6.94-87.44,15.72-132.58,27.19-72.21,18.36-122.48,41.66-157.25,65.75l37.44,7.09,260.8-49C2173.71,2724.2,2170,2706.9,2163.82,2690.93Z"/><path class="cls-10" d="M2253.11,2678.86a157.32,157.32,0,0,1,11.5,30.57,122.37,122.37,0,0,1,2.82,14.71l389.37-73.09,754.39,140.23L3253.5,2455.05c-266.85,5.45-275.19,119.27-498.39,169.54C2595.7,2660.4,2426.31,2659.22,2253.11,2678.86Z"/><path class="cls-14" d="M2253.11,2678.86a157.32,157.32,0,0,1,11.5,30.57,122.37,122.37,0,0,1,2.82,14.71l389.37-73.09,754.39,140.23L3253.5,2455.05c-266.85,5.45-275.19,119.27-498.39,169.54C2595.7,2660.4,2426.31,2659.22,2253.11,2678.86Z"/><path class="cls-15" d="M1085.47,2396.59l-18.18,58.27h232.29q6.57-29.13,13.16-58.27Z"/><path class="cls-16" d="M1045.63,2618.49h217q6.57-29.13,13.16-58.26H1063.21Z"/><path class="cls-17" d="M1102.91,2537.78h177.95q6.57-29.15,13.15-58.27H1119.8Z"/><path class="cls-18" d="M1327.77,2315l9.78-43.06H1064.62L1050.16,2315Z"/><path class="cls-19" d="M1568.75,2315h366.76l-.3-27.3-23.78,4.68-261-51.72h-71.84Z"/><path class="cls-20" d="M2232.38,2309.1h287.49q-6.33-26.42-12.68-52.81H2225.66Z"/><path class="cls-21" d="M2868.18,2309.1q-10-26.42-19.9-52.81H2566.74q7,26.4,13.94,52.81Z"/><path class="cls-22" d="M2929,2309.1h256.06l-7.71-16.44-186.78-36.37h-82.73Q2918.42,2282.69,2929,2309.1Z"/><path class="cls-23" d="M683.05,2448.79q-27.82-26.84-54-53.66l-34.52,5.52-25.79,54.78q4.9,4.91,9.85,9.82Q631.1,2457,683.05,2448.79Z"/><path class="cls-24" d="M694.89,2460.14q-52.11,8.24-104.8,16.47,27.43,26.83,56.48,53.66Q700,2522,752.8,2513.81,723,2487,694.89,2460.14Z"/><path class="cls-25" d="M827.24,2578.83q-31.69-26.84-61.78-53.67-53,8.24-106.54,16.46,29.39,26.84,60.35,53.67Q773.56,2587.06,827.24,2578.83Z"/><path class="cls-26" d="M1538.14,2437.56h184.57q1.41-20.47,2.83-40.95H1543.79Q1541,2417.09,1538.14,2437.56Z"/><path class="cls-27" d="M1754.64,2396.61q-1.19,20.47-2.38,40.95h184.57q-.22-20.47-.44-40.95Z"/><path class="cls-10" d="M2014.79,2646.55c-10.59-12.57-160.19-24.91-329.11,19.67-67.29,17.61-107.6,38.9-126.51,58.07l127.62,24.15c25-13.8,50.66-30,81.1-42C1825.69,2683.81,2030.56,2666.39,2014.79,2646.55Z"/><path class="cls-28" d="M2014.79,2646.55c-10.59-12.57-160.19-24.91-329.11,19.67-67.29,17.61-107.6,38.9-126.51,58.07l127.62,24.15c25-13.8,50.66-30,81.1-42C1825.69,2683.81,2030.56,2666.39,2014.79,2646.55Z"/><path class="cls-29" d="M1767.84,2749.8q-11.94,4.72-24,9.44l77.69,14.71,18.76-7.42Q1803.88,2758.16,1767.84,2749.8Z"/><path class="cls-30" d="M1762.52,2737.56q35.87,8.37,72.14,16.73,33.75-13.45,66.9-26.9-36.13-8.35-71.86-16.73Q1796.42,2724.12,1762.52,2737.56Z"/><path class="cls-31" d="M1869.51,2709q35.82,8.37,72,16.73,32.94-13.44,65.3-26.89-36.09-8.37-71.77-16.73Q1902.6,2695.59,1869.51,2709Z"/><path class="cls-32" d="M2287.46,2613.28q15.61,18.64,31.58,37.28,143.4-10.23,284.77-20.48-17.73-18.64-35.13-37.28Q2429.09,2603,2287.46,2613.28Z"/><path class="cls-33" d="M2631.61,2581.61q34.11,13.8,68.83,27.61,65.46-15.93,129.38-31.85-35.06-13.82-69.5-27.62Q2696.75,2565.68,2631.61,2581.61Z"/><path class="cls-10" d="M2139,2646.46c9.23,12.76,18.42,27.89,24.85,44.47,30.06-4.81,59.79-8.74,89.29-12.07a240,240,0,0,0-24.39-38.89,385.15,385.15,0,0,0-49.86-53.35l34.07-1.28c146.43-5.5,284.6-10.69,402.56-29.36,72.54-11.5,143.55-28.94,209.65-51.85,52.1-18.06,101.4-39.57,146-63.93,55.46-30.27,89.49-57.13,104.48-69.91h138.1L3200,2341.06H2103.21c8.14-30.82,23.45-63.35,48.38-95.86l-97,19.06a289.36,289.36,0,0,0-29.35,58.53q-3.27,9-5.84,18.27H1485.11q10.56-64.47,21.13-128.94l-75.85-15q-14.12,72-28.22,144H799.54q177.84-72.79,339.12-145.57l-171.61,33.16q-25.83,11.19-52,22.39-9.94-4.26-19.8-8.51L817,2257.64q20.28,8.79,40.89,17.58-78.36,32.91-160.09,65.84H622.55l-13.77,29.23h70.87Q778,2475,900,2579.67c-7.64,7-24.34,21-50,35.68a365.49,365.49,0,0,1-134.63,45L476,2652.3l-13.85,29.41q125.77,4.2,252.27,8.41l10.08-1c79-7.84,149-28.9,206.51-62.61,40.37-23.63,60-45.07,60.83-46l4.36-4.79q-123-102.73-223.11-205.46h623.33q-30.54,155.82-61.09,311.64l5.58,1.05c7.32.68,14.07,1.36,20.2,2,28.28,3.08,43.61,5.75,43.6,5.75l-2.77,3.77,35.08,6.64c198.72-80.5,422.55-100.5,650-110.79C2099.12,2600.87,2120.49,2621,2139,2646.46Zm-41.54-276.17h880.84c-52.11,40-192.56,125.22-407.23,159.22-104.39,16.65-234.08,21.58-371.59,26.79q-24.28.93-48.95,1.88c-15.09-20.38-39.72-60-50-109.44A232.75,232.75,0,0,1,2097.43,2370.29Zm-715.15,311.78q18.13-100.84,36.29-201.68l44-1.75q8.87-54.18,17.75-108.35h532.83a243.84,243.84,0,0,0,1.23,80.59c.35,1.9.71,3.79,1.11,5.67l43-1.74q19.55,60.14,40.52,120.25c-.25,0-180.51,5.68-360.42,29.07C1559.64,2627.51,1382.81,2682.07,1382.28,2682.07Z"/><path class="cls-34" d="M2139,2646.46c9.23,12.76,18.42,27.89,24.85,44.47,30.06-4.81,59.79-8.74,89.29-12.07a240,240,0,0,0-24.39-38.89,385.15,385.15,0,0,0-49.86-53.35l34.07-1.28c146.43-5.5,284.6-10.69,402.56-29.36,72.54-11.5,143.55-28.94,209.65-51.85,52.1-18.06,101.4-39.57,146-63.93,55.46-30.27,89.49-57.13,104.48-69.91h138.1L3200,2341.06H2103.21c8.14-30.82,23.45-63.35,48.38-95.86l-97,19.06a289.36,289.36,0,0,0-29.35,58.53q-3.27,9-5.84,18.27H1485.11q10.56-64.47,21.13-128.94l-75.85-15q-14.12,72-28.22,144H799.54q177.84-72.79,339.12-145.57l-171.61,33.16q-25.83,11.19-52,22.39-9.94-4.26-19.8-8.51L817,2257.64q20.28,8.79,40.89,17.58-78.36,32.91-160.09,65.84H622.55l-13.77,29.23h70.87Q778,2475,900,2579.67c-7.64,7-24.34,21-50,35.68a365.49,365.49,0,0,1-134.63,45L476,2652.3l-13.85,29.41q125.77,4.2,252.27,8.41l10.08-1c79-7.84,149-28.9,206.51-62.61,40.37-23.63,60-45.07,60.83-46l4.36-4.79q-123-102.73-223.11-205.46h623.33q-30.54,155.82-61.09,311.64l5.58,1.05c7.32.68,14.07,1.36,20.2,2,28.28,3.08,43.61,5.75,43.6,5.75l-2.77,3.77,35.08,6.64c198.72-80.5,422.55-100.5,650-110.79C2099.12,2600.87,2120.49,2621,2139,2646.46Zm-41.54-276.17h880.84c-52.11,40-192.56,125.22-407.23,159.22-104.39,16.65-234.08,21.58-371.59,26.79q-24.28.93-48.95,1.88c-15.09-20.38-39.72-60-50-109.44A232.75,232.75,0,0,1,2097.43,2370.29Zm-715.15,311.78q18.13-100.84,36.29-201.68l44-1.75q8.87-54.18,17.75-108.35h532.83a243.84,243.84,0,0,0,1.23,80.59c.35,1.9.71,3.79,1.11,5.67l43-1.74q19.55,60.14,40.52,120.25c-.25,0-180.51,5.68-360.42,29.07C1559.64,2627.51,1382.81,2682.07,1382.28,2682.07Z"/><path class="cls-10" d="M2566.63,2231.12c88,0,177-1.88,266.14-5.56L2701.71,2200c-114.39,2.67-220.56,1.95-316-.87L2262,2223.49c93.9,4.81,190.69,7.36,288.79,7.61Z"/><path class="cls-35" d="M2566.63,2231.12c88,0,177-1.88,266.14-5.56L2701.71,2200c-114.39,2.67-220.56,1.95-316-.87L2262,2223.49c93.9,4.81,190.69,7.36,288.79,7.61Z"/><path class="cls-10" d="M424.55,2761.61c27.52,3.34,56.75,6.31,87.48,8.89l121.32-22.36c-71-3.91-137.17-10.06-193.9-18.17Z"/><path class="cls-36" d="M424.55,2761.61c27.52,3.34,56.75,6.31,87.48,8.89l121.32-22.36c-71-3.91-137.17-10.06-193.9-18.17Z"/><path class="cls-10" d="M1361.13,2685c-6.13-.67-12.88-1.35-20.2-2l61,11.55,2.77-3.77S1389.41,2688.09,1361.13,2685Z"/><path class="cls-37" d="M1361.13,2685c-6.13-.67-12.88-1.35-20.2-2l61,11.55,2.77-3.77S1389.41,2688.09,1361.13,2685Z"/><path class="cls-38" d="M1361.13,2685c-6.13-.67-12.88-1.35-20.2-2l61,11.55,2.77-3.77S1389.41,2688.09,1361.13,2685Z"/><path class="cls-10" d="M2058.5,2454.81l-43,1.74h0c9.51,46.94,31,84.37,45.7,105.43-209.78,9.92-428,29.21-628.09,96.47q14.73-89.91,29.47-179.81l-44,1.75q-18.15,100.84-36.29,201.68c.53,0,177.36-54.56,356.32-77.94,179.91-23.39,360.17-29.07,360.42-29.07Q2078.05,2514.94,2058.5,2454.81Z"/><path class="cls-39" d="M2058.5,2454.81l-43,1.74h0c9.51,46.94,31,84.37,45.7,105.43-209.78,9.92-428,29.21-628.09,96.47q14.73-89.91,29.47-179.81l-44,1.75q-18.15,100.84-36.29,201.68c.53,0,177.36-54.56,356.32-77.94,179.91-23.39,360.17-29.07,360.42-29.07Q2078.05,2514.94,2058.5,2454.81Z"/><path class="cls-40" d="M2058.5,2454.81l-43,1.74h0c9.51,46.94,31,84.37,45.7,105.43-209.78,9.92-428,29.21-628.09,96.47q14.73-89.91,29.47-179.81l-44,1.75q-18.15,100.84-36.29,201.68c.53,0,177.36-54.56,356.32-77.94,179.91-23.39,360.17-29.07,360.42-29.07Q2078.05,2514.94,2058.5,2454.81Z"/><path class="cls-10" d="M2264.61,2709.43a157.32,157.32,0,0,0-11.5-30.57c-29.5,3.33-59.23,7.26-89.29,12.07,6.19,16,9.89,33.27,8.41,51.07l95.2-17.86A122.37,122.37,0,0,0,2264.61,2709.43Z"/><path class="cls-41" d="M2264.61,2709.43a157.32,157.32,0,0,0-11.5-30.57c-29.5,3.33-59.23,7.26-89.29,12.07,6.19,16,9.89,33.27,8.41,51.07l95.2-17.86A122.37,122.37,0,0,0,2264.61,2709.43Z"/><path class="cls-42" d="M2264.61,2709.43a157.32,157.32,0,0,0-11.5-30.57c-29.5,3.33-59.23,7.26-89.29,12.07,6.19,16,9.89,33.27,8.41,51.07l95.2-17.86A122.37,122.37,0,0,0,2264.61,2709.43Z"/><path class="cls-10" d="M2310.35,2525.69c55.64.15,183.78-20.27,287.64-44.65,104.51-24.38,184.74-52.71,159.62-68.37-35.65-20.92-509.76-44.72-593-1.64C2112,2437.56,2222.42,2525.46,2310.35,2525.69Z"/><path class="cls-43" d="M2310.35,2525.69c55.64.15,183.78-20.27,287.64-44.65,104.51-24.38,184.74-52.71,159.62-68.37-35.65-20.92-509.76-44.72-593-1.64C2112,2437.56,2222.42,2525.46,2310.35,2525.69Z"/><polygon class="cls-44" points="1166.23 2651.05 1282.3 2168.88 646.28 2291.77 411.66 2790.14 1166.23 2651.05"/><polygon class="cls-45" points="1282.3 2168.88 1166.23 2651.05 1911.43 2792.1 1911.43 2293.56 1282.3 2168.88"/><polygon class="cls-46" points="1911.43 2792.1 1911.43 2293.56 2540.7 2169.83 2656.8 2652.19 1911.43 2792.1"/><polygon class="cls-47" points="2540.7 2169.83 3177.34 2293.8 3411.19 2792.42 2656.8 2652.19 2540.7 2169.83"/><path class="cls-48" d="M2579.8,1299.76c0-369.15-299.25-668.41-668.4-668.41S1243,930.61,1243,1299.76a665.18,665.18,0,0,0,110.18,367.67l558.22,831.2,558.22-831.2A665.18,665.18,0,0,0,2579.8,1299.76Zm-668.4,326c-180,0-326-146-326-326s145.95-326,326-326,326,146,326,326S2091.44,1625.74,1911.4,1625.74Z"/><polygon class="cls-49" points="2641.13 1913.66 2699.47 1913.66 2699.47 1802.05 2663.81 1802.05 2641.13 1913.66"/><path class="cls-50" d="M2598,1745.56c-9.86,45.81-2.57,92,25.08,102,26,9.4,71-15.46,91.56-60.75,21.69-47.68,11.1-83.32-27.31-96.58C2646.57,1676.15,2608.85,1695.34,2598,1745.56Z"/><path class="cls-51" d="M2679.42,1674.05c42.43,3.32,65.88,41.77,63.17,79.81-2.54,35.51-40.51,54.48-40.51,54.48s-12.52-36-33-41.8c-28.64-8-16.26-33.61-29.64-36.37-13.94-2.88-44.26-14-43.76-34.24C2615.26,1696.61,2631.77,1670.32,2679.42,1674.05Z"/><path class="cls-50" d="M2675.21,1774c-3.44,7.67-1,16.21,5.35,19.07s14.36-1,17.8-8.7,1-16.21-5.35-19.07S2678.65,1766.37,2675.21,1774Z"/><path class="cls-51" d="M2679.42,1765.84s-3.19,49.51-12.65,68.33c-8.24,16.38-44.18,33.29-63.76-5.58,0,0,19.82,4.14,17.57-4.25-2.64-9.88-23-10-23-10s-4-.19-4.7-3.86c-1.06-5.44,1.59-14.27,1.59-14.27s27,9.62,38.62,9.62c13.19,0,25.16-9.3,36.31-40Z"/><path class="cls-49" d="M2509,2857.52l53.62-300,36.43-147.81,36.68-148.1,12.46-50.36,105.18,33.55-19,48.27L2679,2433.7c-18.43,46.94-37.15,93.86-55.38,141l-90.09,288.81-3.76,12.05-22.93-5.6Z"/><path class="cls-49" d="M2716,2212.53l4.19,51.7L2744,2557.12l221.48,103.81,11.43,5.35-8.36,21.82-12.08-3.65-254-76.77a27.88,27.88,0,0,1-19.17-20.85l-.9-4.22-64.59-303.39-10.8-50.74Z"/><polygon class="cls-52" points="2771.77 2174.31 2575.15 2212.5 2513.69 2800.14 2579.64 2809.19 2771.77 2174.31"/><path class="cls-53" d="M2779.7,2222.51l-198.36-27.71s30.41,367.91,89.75,414.83c33,26.09,216.47,70,216.47,70l19.75-56.33s-138.11-55.9-149.66-73.19C2745.09,2531.34,2779.7,2222.51,2779.7,2222.51Z"/><path class="cls-49" d="M2637.07,1934.14l-130,185.81,23.65-6.6-153.34-58.21-13.93-5.29-11.06,26.67,13.58,6.12,149.51,67.44a19.11,19.11,0,0,0,23-5.76l.65-.84,138.25-179.76,15.24-19.82-41.2-30.24Z"/><path class="cls-54" d="M2704.82,1971.52c-19.11,50.08-109.21,161.29-178.83,181.5-41.34,12-131-50.88-131-50.88l13-40.35s67.94,45.13,104.47,10.45,101.23-145.71,134.19-151.86C2675.78,1915,2713.41,1949,2704.82,1971.52Z"/><path class="cls-55" d="M2695.48,1890.08s-30.61,26.83-61.21,8.94c0,0-10.47,111.81-24.17,157.43s-54,165.47-54,165.47h222.5C2784.59,2119.85,2746,2003.9,2695.48,1890.08Z"/><path class="cls-56" d="M2706.07,1880.91s106.34,159,84.69,328.69c0,0,9.13,33.32-111.53,28.78s-127.57-21.21-127.57-21.21c38.19-91,67.87-194.08,82.61-318.14C2634.27,1899,2679.38,1900.68,2706.07,1880.91Z"/><path class="cls-50" d="M2671.44,1959.72c15.13,26.15,29.82,53.45,43.31,80.71,6.73,13.67,13.19,27.43,19.08,41.24a358.86,358.86,0,0,1,15.12,41.24c1,3.38,1.73,6.6,2.43,9.9l2,10.91c1.23,7.4,2.41,14.85,3.42,22.4,2.06,15.09,3.77,30.36,5.31,45.68,3,30.63,5.34,61.6,7.12,92.34l.86,14.87,28.92-.73v-14.89c0-31.44-.62-62.62-1.88-94-.68-15.71-1.54-31.44-2.78-47.28-.61-7.91-1.41-15.89-2.27-23.9l-1.57-12.13c-.68-4.36-1.52-8.75-2.45-12.91-3.84-16.66-9-32-14.5-47.17s-11.57-29.86-17.83-44.44c-12.63-29.2-26-57.46-40.57-86l-11.39-22.26-44.89,24.78Z"/><path class="cls-57" d="M2723.91,1908.86c38.36,37.45,60.43,122.47,76.75,193.1s3.05,177.88,3.05,177.88l-44,1.94s-2.52-109.15-19.82-156.45-93.48-150.81-86-183.49C2660.47,1913,2706.68,1892,2723.91,1908.86Z"/><path class="cls-49" d="M2296.71,2039.07c-3.39,9.66,8.26,27.07,29.72,37.48,19.77,9.6,37.55,4.5,41.59-5C2377,2050.26,2302,2024.12,2296.71,2039.07Z"/><path class="cls-50" d="M2785,2405.82c10.22-.8,21.32-23.12,22-53.52.64-28-11.32-46.43-21.67-46.48C2762.23,2305.72,2769.21,2407,2785,2405.82Z"/><path class="cls-50" d="M2762.33,2363.19c-4.28-1.41-6.31-13.57-2.88-28.71,3.15-14,10.53-21.9,15-20.89C2784.34,2315.82,2769,2365.36,2762.33,2363.19Z"/><path class="cls-51" d="M2421.17,2890.43s15.17-4,19.37-5.52c16.76-6,60.18-23.82,60.18-23.82s5.35,8.63,18.76,10.3a35.27,35.27,0,0,0,17.43-2.34c4.29-.13,8,6.78,8.24,15.44a28.4,28.4,0,0,1-.8,7.83l.36,12-128,3.84-.36-12.17A5.43,5.43,0,0,1,2421.17,2890.43Z"/><path class="cls-51" d="M2960.44,2777.48s.59-15.68.37-20.13c-.89-17.8-5.25-64.52-5.25-64.52s9.82-2.6,15.32-14.94a35.37,35.37,0,0,0,2.85-17.36c1.13-4.14,8.81-5.66,17.17-3.38a28.83,28.83,0,0,1,7.26,3l11.6,3.16-33.63,123.54-11.75-3.2A5.45,5.45,0,0,1,2960.44,2777.48Z"/><rect class="cls-51" x="2323.56" y="1991.97" width="9.27" height="101.43" transform="translate(-605.7 1050.06) rotate(-22.57)"/><path class="cls-49" d="M2324.53,2027.6c3-3.36,15-.39,27.49,8.77,11.55,8.45,15.9,18.37,13.22,22.05C2359.24,2066.63,2319.91,2032.82,2324.53,2027.6Z"/><path class="cls-50" d="M887.06,2333.07c4.49-.46,9.06-11.94,8.93-27.49-.12-14.34-5.66-23.68-10.22-23.65C875.59,2282,880.12,2333.79,887.06,2333.07Z"/><path class="cls-51" d="M1055.77,1641.92c-47.64-34.15-105-10.87-112.62,38.43-9.89,64,2.61,115.51-13.29,158-24.64,65.8-17.81,130.45-17.81,130.45,65-88.61,132.18-51.93,169.27-141C1093.24,1799.19,1101.41,1674.63,1055.77,1641.92Z"/><polygon class="cls-49" points="1036.81 1857.47 979.93 1857.47 979.93 1748.66 1014.69 1748.66 1036.81 1857.47"/><path class="cls-50" d="M1078.81,1693.59c9.61,44.66,2.51,89.69-24.45,99.46-25.29,9.16-69.18-15.07-89.26-59.22-21.14-46.49-10.82-81.23,26.63-94.17C1031.51,1625.92,1068.28,1644.63,1078.81,1693.59Z"/><polygon class="cls-49" points="1154.25 2781.25 1116.02 2504.37 1075.7 2227.82 1068.4 2177.77 963.06 2200.49 977.05 2249.1 1054.29 2517.49 1130.21 2786.27 1133.56 2798.12 1155.93 2793.44 1154.25 2781.25"/><path class="cls-49" d="M923.09,2177.76l-1.76,50.54-10.21,293.87-128.38,191.4-6.86,10.22,17.78,14,8.35-9,164-177.57a22.91,22.91,0,0,0,5.81-11.87l.71-4.25,49.2-296.77,8.28-49.88Z"/><polygon class="cls-58" points="942.44 2168.44 1091.63 2168.44 1155.98 2687.58 1069.18 2700.22 942.44 2168.44"/><path class="cls-59" d="M901.49,2168.44h143.33s-26.25,331.82-47.64,370.82C971.54,2586,870,2694.55,870,2694.55l-68.95-53.26s72.62-102.8,90.17-151.07S901.49,2168.44,901.49,2168.44Z"/><path class="cls-49" d="M1040.09,1897.73c10.92,28.36,23.05,57.11,36,84.84,6.5,13.88,13.22,27.62,20.39,40.91s14.73,26.27,23,37.71c7.58,10.65,18.55,21.62,29.27,32.23,10.89,10.61,22.24,21,33.83,31.25,23.19,20.39,47.23,40.35,71.46,59.51l11.71,9.26-17.18,23.33-12.22-8.57c-26-18.23-51.28-36.88-76.3-56.45-12.49-9.81-24.83-19.88-37-30.44q-9.14-7.89-18.07-16.43c-3-3-5.88-5.67-8.94-8.94s-6-6.69-8.71-10.06c-10.75-13.47-19.62-27.2-28-41.07s-16.19-27.91-23.7-42c-15-28.34-28.67-56.67-41.78-86.14l-10.19-22.89,47.57-19.39Z"/><path class="cls-60" d="M1196.54,2126.92l-54.66,76.31s-70.22-80.92-105.45-132.18c-44.29-64.43-105.85-165.22-54.87-197.71,66.62-42.45,104,142.71,129.47,177C1131.58,2078.08,1196.54,2126.92,1196.54,2126.92Z"/><path class="cls-61" d="M978.56,1848.22s30.67,26.89,61.34,9c0,0,10.49,112,24.21,157.73s49.34,162,49.34,162l-218.21,3.84C889.28,2078.44,927.92,1962.26,978.56,1848.22Z"/><path class="cls-50" d="M993.32,1927.81c-15.44,26-30.45,53.24-44.25,80.4-6.89,13.63-13.51,27.34-19.56,41.12a358.43,358.43,0,0,0-15.59,41.16c-1,3.38-1.8,6.59-2.54,9.89l-2.17,10.91c-1.31,7.4-2.57,14.85-3.67,22.41-2.21,15.09-4.1,30.37-5.8,45.7-3.31,30.66-6,61.66-8.12,92.44l-1,14.89-29-1,.18-14.92c.36-31.5,1.29-62.74,2.88-94.21.85-15.72,1.88-31.47,3.29-47.33.69-7.92,1.58-15.91,2.53-23.92l1.7-12.14c.73-4.36,1.61-8.75,2.6-12.91a396.14,396.14,0,0,1,15-47.11c5.72-15.08,11.91-29.78,18.34-44.33,13-29.12,26.66-57.29,41.56-85.69L961.38,1881l44.71,25.31Z"/><path class="cls-62" d="M970.87,1835.17S864.32,1994.52,886,2164.5c0,0-9.16,33.39,111.74,28.84s127.82-21.25,127.82-21.25c-38.27-91.22-68-194.46-82.77-318.77C1042.81,1853.32,997.61,1855,970.87,1835.17Z"/><path class="cls-63" d="M939.91,2204.25l-93.57,7.43s8.33-105.65,24.78-165.63c20.69-75.4,58-187.45,115.73-169.44,75.4,23.54-42,171.56-51.8,213.11C927.11,2123.3,939.91,2204.25,939.91,2204.25Z"/><path class="cls-50" d="M855.75,2370.14c-9.83-2.95-15.94-27.2-10.14-57.16,5.35-27.62,21-43.12,31.12-41C899.38,2276.82,871,2374.7,855.75,2370.14Z"/><path class="cls-49" d="M1334.1,2252.89c-5.82,8.44-30.75,6.83-57.44-7.86-24.61-13.55-34.54-33.16-29.37-42.15C1258.82,2182.8,1343.11,2239.82,1334.1,2252.89Z"/><path class="cls-51" d="M1241.62,2808l-17.59-3.13h0l-64.34-24.9v.52s-.78,11-14.14,13.1c-9.85,1.53-16.23-1.1-18.91-2.58a3,3,0,0,0-1.46-.92c-4.3,0-7.78,7-7.78,15.69a28.55,28.55,0,0,0,1,7.81v12H1246.6v-12.2A5.46,5.46,0,0,0,1241.62,2808Z"/><path class="cls-51" d="M848.42,2806.4l-10.9-14.16h0l-30.8-61.73-.35.38s-8,7.63-19.28.17c-8.31-5.5-11.26-11.73-12.24-14.64a3.09,3.09,0,0,0-.46-1.66c-3.18-2.89-10.48,0-16.32,6.37a28.43,28.43,0,0,0-4.49,6.47l-8.1,8.9,94.76,86.28,8.21-9A5.46,5.46,0,0,0,848.42,2806.4Z"/><path class="cls-51" d="M1004.66,1627.49c-12.93,0-21.79,1.16-32.81,6.87-17.7,9.17-41.06,31.09-45.7,80.77-4.33,46.31,14.22,69-25.35,112.66-44.51,33.8-123.83,28-114.67,103.86s109.73,65.95,133.63,28S941,1888,954.27,1864.06s36.38-9.89,47.92-36.27c13.54-24.81-10-80.47-14.19-90,2.83-9.33,6.48-19.57,21.61-23.7,32.45-8.85,59.35-39.56,59.35-49.45S1039.28,1627.49,1004.66,1627.49Z"/><path class="cls-50" d="M1003.58,1721.35c3.35,7.48,1,15.8-5.21,18.6s-14-1-17.35-8.48-1-15.81,5.21-18.6S1000.23,1713.87,1003.58,1721.35Z"/><path class="cls-64" d="M1351.65,2049.7c-.39,2.22-.71,4.43-1,6.65a101.88,101.88,0,0,0,200.22,35.3c.53-2.16,1-4.36,1.38-6.57a102.39,102.39,0,0,0,1.24-26.1,100.49,100.49,0,0,0-7-29.58,102.27,102.27,0,0,0-11.11-20.44,101.86,101.86,0,0,0-141.87-25,102.9,102.9,0,0,0-17.44,15.4,100.34,100.34,0,0,0-11.46,15.47,102.14,102.14,0,0,0-13,34.88Z"/><path class="cls-65" d="M1364.64,2014.82l187.36,33a100.57,100.57,0,0,0-5.48-18.46l-170.42-30.05A100.34,100.34,0,0,0,1364.64,2014.82Z"/><path class="cls-65" d="M1351.65,2049.7c-.39,2.22-.71,4.43-1,6.65l200.22,35.3c.53-2.16,1-4.36,1.38-6.57a102.39,102.39,0,0,0,1.24-26.1l-194.12-34.23A102.1,102.1,0,0,0,1351.65,2049.7Z"/><path class="cls-66" d="M1199.63,2283.85a47.21,47.21,0,0,0,35.77,35.78q53.08-55.58,107.11-112.43l10.43-11,7.41-7.79,10.43-11,21.06-22.17L1364,2127.42l-22.16,21.06-11,10.43-7.79,7.4-11,10.43Q1255.26,2230.76,1199.63,2283.85Z"/><path class="cls-67" d="M1533.45,1985.8a115.31,115.31,0,1,0,0,163.08A115.31,115.31,0,0,0,1533.45,1985.8Zm-19,144.07a88,88,0,1,1,19.43-29.24A87.73,87.73,0,0,1,1514.44,2129.87Z"/><path class="cls-68" d="M1330.81,2158.91l29.54,29.54,10.43-11-29-29Z"/><path class="cls-69" d="M1312.05,2176.74l30.46,30.46,10.43-11L1323,2166.31Z"/><path class="cls-49" d="M1308.57,2211.79c.94-4.41-8.59-12.29-23.43-16.94-13.68-4.29-24.27-1.89-25.63,2.46C1256.45,2207,1307.12,2218.62,1308.57,2211.79Z"/></g></g></svg>