<svg xmlns="http://www.w3.org/2000/svg" xmlns:xlink="http://www.w3.org/1999/xlink" viewBox="0 0 3387.32 1764.4"><defs><style>.cls-1{isolation:isolate;}.cls-2{fill:#a3d6d9;}.cls-3{fill:#9f6652;}.cls-4{fill:#faad83;}.cls-5{fill:#1f1c37;}.cls-6{fill:#1d254c;}.cls-7,.cls-8{opacity:0.56;}.cls-20,.cls-21,.cls-7,.cls-8{mix-blend-mode:multiply;}.cls-7{fill:url(#linear-gradient);}.cls-8{fill:url(#linear-gradient-2);}.cls-9{fill:#c2ebed;}.cls-10{fill:#ddf4f5;}.cls-11,.cls-39{fill:#5dd6e1;}.cls-12{fill:#00cb9b;}.cls-13{fill:#1d1c2c;}.cls-14{fill:#90a6bd;}.cls-15{fill:#54606e;}.cls-16{fill:#ff9597;}.cls-17{fill:#f6a04b;}.cls-18{fill:#aac4df;}.cls-19,.cls-37{fill:#fff;}.cls-20,.cls-40{opacity:0.31;}.cls-20{fill:url(#linear-gradient-3);}.cls-21{opacity:0.76;fill:url(#linear-gradient-4);}.cls-22{fill:#7a8da1;}.cls-23{fill:#bee9eb;}.cls-24{fill:url(#linear-gradient-5);}.cls-25{fill:#ffc800;}.cls-26{fill:url(#linear-gradient-6);}.cls-27{fill:url(#linear-gradient-7);}.cls-28{fill:url(#linear-gradient-8);}.cls-29{fill:#303b71;}.cls-30{fill:#5830e0;}.cls-31{fill:url(#linear-gradient-9);}.cls-32{fill:url(#linear-gradient-10);}.cls-33{fill:#f7b6b0;}.cls-34{fill:#f27e87;}.cls-35{fill:url(#linear-gradient-11);}.cls-36{fill:#c29800;opacity:0.57;}.cls-37{opacity:0.22;}.cls-38{fill:#e5cdfd;}.cls-39{opacity:0.46;}.cls-41{fill:#4d2ac4;}</style><linearGradient id="linear-gradient" x1="2619.07" y1="-183.27" x2="2088.19" y2="1030.71" gradientUnits="userSpaceOnUse"><stop offset="0" stop-color="#fff"/><stop offset="1" stop-color="#ecdbfd"/></linearGradient><linearGradient id="linear-gradient-2" x1="409.42" y1="547.72" x2="3081.9" y2="1444.41" xlink:href="#linear-gradient"/><linearGradient id="linear-gradient-3" x1="2379.84" y1="615.64" x2="2005.03" y2="1027.93" xlink:href="#linear-gradient"/><linearGradient id="linear-gradient-4" x1="2254.4" y1="576.91" x2="2031.88" y2="821.68" xlink:href="#linear-gradient"/><linearGradient id="linear-gradient-5" x1="1164.25" y1="1659.66" x2="1665.65" y2="1659.66" gradientUnits="userSpaceOnUse"><stop offset="0" stop-color="#f7c200"/><stop offset="1" stop-color="#f6a04b"/></linearGradient><linearGradient id="linear-gradient-6" x1="1173.22" y1="1600.87" x2="1674.62" y2="1600.87" xlink:href="#linear-gradient-5"/><linearGradient id="linear-gradient-7" x1="1156.31" y1="1553.34" x2="1657.71" y2="1553.34" xlink:href="#linear-gradient-5"/><linearGradient id="linear-gradient-8" x1="1174.01" y1="1498.26" x2="1675.4" y2="1498.26" xlink:href="#linear-gradient-5"/><linearGradient id="linear-gradient-9" x1="2267.71" y1="-870.24" x2="2240.54" y2="66.92" gradientTransform="translate(-822.94 1383.13) rotate(-20.93)" xlink:href="#linear-gradient-5"/><linearGradient id="linear-gradient-10" x1="781.79" y1="967.01" x2="755.26" y2="1882.46" xlink:href="#linear-gradient-5"/><linearGradient id="linear-gradient-11" x1="2456.18" y1="1145.03" x2="2961.86" y2="1145.03" xlink:href="#linear-gradient-5"/></defs><title>Element 4</title><g class="cls-1"><g id="Ebene_2" data-name="Ebene 2"><g id="Layer_1" data-name="Layer 1"><path class="cls-2" d="M414.16,1050.37c20.54-7.34,45.23,18.58,65.78,58.94s35.94,71.13,41.06,76.25,116,91.62,116,91.62L618.39,1299s-95.94-50-128.38-78.81-74.73-100-85-121.74S403,1054.37,414.16,1050.37Z"/><path class="cls-3" d="M637,1277.18s29.16,2.57,37.33,5.93,27.94,6.57,24.3,10-28.42,5.85-39.81,5.85-35.46-5.79-35.46-5.79Z"/><path class="cls-4" d="M1134.1,575.42s1.92-24.5-9.13-32.19-18.26-11.82-18.74-10.48,4.8,10,8.64,14.32-11.53,3.37-21.14-3.84-6.73-14.9-12.49-17.3-.48,21.62,2.88,28.35,21.11,17.3,22.33,25.47S1134.1,575.42,1134.1,575.42Z"/><polygon class="cls-3" points="57.13 1587.57 24.7 1607.49 28.96 1626.58 46.55 1634 85.71 1611.93 57.13 1587.57"/><path class="cls-5" d="M46.55,1634a267.28,267.28,0,0,0,11.53,30c6.67,14.23,13.91,34.06,8.15,36.28s-27.86-24.59-33.85-34.32a89.26,89.26,0,0,0-21.29-24.45c-13.32-10.6-14-16.68-5.55-23.25a86.82,86.82,0,0,1,19.16-10.73Z"/><path class="cls-6" d="M256,1221.46s-19.22,27.64-37.48,105.13S193.55,1434,182,1450.72s-143.2,144.89-143.2,144.89l24,33.29s174-118.15,193.18-145.06,90.35-170.11,90.35-170.11l-54.79-106.68Z"/><polygon class="cls-3" points="341.24 1673.81 334.87 1711.34 352.03 1720.71 369.2 1712.37 378.4 1668.37 341.24 1673.81"/><path class="cls-5" d="M369.21,1712.37a266.81,266.81,0,0,0,30.13,11.05c15.1,4.36,34.79,12,32.66,17.78s-36.85,4.75-48.12,2.85-21-2.16-32.41-.08c-16.76,3-21.75-.5-21.15-11.15a86.86,86.86,0,0,1,4.55-21.48Z"/><path class="cls-7" d="M481.77,1756.12s-182.17-352.8,336.82-556.61S1175,968.92,1193.16,681.77,2074.37-117.1,2514.63,24.18s321.16,651.09,219.15,764.62-62.27,411.92,266.36,323.23c289.48-78.13,607,359.25-38.28,628.8Z"/><path class="cls-8" d="M481.77,1756.12s-84.47-345.27,434.52-549.07S1175,968.92,1193.16,681.77,2131.82-52,2572.08,89.29s263.71,586,161.7,699.51-48.52,391.64,280.07,302.81,666,411.33-52,649.22Z"/><polygon class="cls-9" points="1417.08 823.25 1482.8 798.28 1864.07 798.28 1864.07 1719.56 1822.25 1747.91 1417.08 823.25"/><rect class="cls-10" x="1157.33" y="1083" width="924.66" height="405.17" transform="translate(2905.24 -334.08) rotate(90)"/><rect class="cls-11" x="1445.44" y="851.62" width="348.46" height="867.95"/><rect class="cls-10" x="1473.8" y="879.97" width="291.73" height="811.22" transform="translate(3239.33 2571.16) rotate(180)"/><path class="cls-11" d="M1529.12,1719.56h-83.68v-83.68a61.53,61.53,0,0,1,28.36-6.88,62.18,62.18,0,0,1,62.17,62.2A61.48,61.48,0,0,1,1529.12,1719.56Z"/><path class="cls-11" d="M1793.9,1719.56h-83.71a62.18,62.18,0,0,1,83.71-83.7Z"/><circle class="cls-11" cx="1619.66" cy="1287.59" r="122.38" transform="translate(-436.07 1522.4) rotate(-45)"/><circle class="cls-11" cx="1619.66" cy="1553.2" r="61.52"/><path class="cls-10" d="M1630.88,1293.08q-5.58,27.15-16.25,36.89t-29.06,9.74a49.06,49.06,0,0,1-33.33-12.37q-14.17-12.36-15.37-34.26h-11.11a5.85,5.85,0,0,1-5.86-5.85h0a5.86,5.86,0,0,1,5.86-5.86h10.89q4.1-37.15,34.65-45.52a10.57,10.57,0,0,1,13.4,10.14h0a10.37,10.37,0,0,1-7.78,10.13q-20.2,4.83-23.64,25.25h61.19q8.87-44.32,43.23-44.32,19.36,0,31.19,12t13.68,32.34h11a5.86,5.86,0,0,1,5.86,5.86h0a5.85,5.85,0,0,1-5.86,5.85h-11q-2.34,30.9-25.94,39.7a10.32,10.32,0,0,1-13.79-9.76h0a10.49,10.49,0,0,1,7.49-9.92q13.43-4.29,15.61-20Zm2.41-11.71h52.86q-4.05-23.08-26.81-23.09-12.25,0-17.84,6.4T1633.29,1281.37Zm-80,11.71q3.18,25.29,31,25.29,11.37,0,17.51-5.15t10.07-20.14Z"/><path class="cls-11" d="M1473.8,942.15a61.63,61.63,0,0,1-28.36-6.85V851.62h83.68A61.48,61.48,0,0,1,1536,880,62.18,62.18,0,0,1,1473.8,942.15Z"/><path class="cls-11" d="M1765.54,942.15a62.19,62.19,0,0,1-55.35-90.53h83.71v83.7A61.78,61.78,0,0,1,1765.54,942.15Z"/><circle class="cls-11" cx="1619.66" cy="1015.04" r="61.52"/><path class="cls-12" d="M3165.2,1676.68a122.9,122.9,0,0,1-36.84,87.72H2327.49V1483.14h50.44a244.11,244.11,0,0,1-50.44-149c0-135.41,109.76-245.18,245.17-245.18s245.17,109.77,245.17,245.18a245,245,0,0,1-14.21,82.41,160.92,160.92,0,0,1,257.76,128.51c0,3.4-.13,6.77-.33,10.11A122.89,122.89,0,0,1,3165.2,1676.68Z"/><rect class="cls-13" x="2809" y="1657.93" width="242.32" height="2.5" transform="translate(-435.74 1561.99) rotate(-27.87)"/><rect class="cls-13" x="2868.57" y="1602.82" width="130.26" height="2.51" transform="translate(587.82 3986.61) rotate(-74.11)"/><rect class="cls-6" x="2297.64" y="1543.75" width="358.72" height="4.08" transform="translate(75.75 3206.8) rotate(-66.64)"/><rect class="cls-6" x="2433.12" y="1425.09" width="4.08" height="155.7" transform="translate(-385.9 1022.9) rotate(-22.02)"/><polygon class="cls-6" points="2501.65 1490.09 2502.5 1485.6 2600.43 1452.48 2600.8 1455.36 2501.65 1490.09"/><rect class="cls-14" x="1811.06" y="599.96" width="601.64" height="1142.41" rx="44.79"/><rect class="cls-15" x="1841.82" y="620.66" width="507.45" height="14.54" rx="7.27"/><path class="cls-16" d="M861.26,1033.39,893,1019.13a1.88,1.88,0,0,1,2.64,1.91l-3.54,34.65a1.88,1.88,0,0,1-3,1.33l-28.24-20.39A1.88,1.88,0,0,1,861.26,1033.39Z"/><circle class="cls-17" cx="3175.32" cy="1012.13" r="10.11" transform="translate(1667.62 3984.32) rotate(-80.78)"/><path class="cls-12" d="M2674.28,588.54,2639,557.12l.32-1.68a2.94,2.94,0,0,1,2-2.2l44.82-14.8,1.3,1.12a2.92,2.92,0,0,1,.92,2.79l-9.59,46.22-1.61.57A3,3,0,0,1,2674.28,588.54Zm-26.51-31.36,26.69,23.8,7.27-35Z"/><polygon class="cls-14" points="1783.92 657.46 1820.91 616.74 1866.48 663.07 1783.92 657.46"/><rect class="cls-18" x="1768.77" y="646.73" width="601.64" height="1095.64" rx="43.86"/><rect class="cls-19" x="1811.06" y="740.92" width="518.35" height="430.57" rx="25.52"/><path class="cls-20" d="M2329.41,766.45V1146a25.52,25.52,0,0,1-25.52,25.53h-467.3a25.51,25.51,0,0,1-25.53-25.53V766.45a25.52,25.52,0,0,1,25.53-25.53h467.3a24.82,24.82,0,0,1,6.55.86A25.51,25.51,0,0,1,2329.41,766.45Z"/><path class="cls-21" d="M2329.41,766.45v36H1811.06v-36a25.52,25.52,0,0,1,25.53-25.53h467.3A25.52,25.52,0,0,1,2329.41,766.45Z"/><rect class="cls-19" x="2237.78" y="1222.74" width="91.62" height="34.6" rx="17.3"/><rect class="cls-19" x="2095.54" y="1222.74" width="91.62" height="34.6" rx="17.3"/><rect class="cls-19" x="1953.3" y="1222.74" width="91.62" height="34.6" rx="17.3"/><rect class="cls-19" x="1811.06" y="1222.74" width="91.62" height="34.6" rx="17.3"/><path class="cls-22" d="M2312.11,1695.6h-57a17.31,17.31,0,0,1-17.3-17.3h0a17.3,17.3,0,0,1,17.3-17.3h57a17.3,17.3,0,0,1,17.3,17.3h0A17.31,17.31,0,0,1,2312.11,1695.6Z"/><path class="cls-22" d="M2169.87,1695.6h-57a17.31,17.31,0,0,1-17.3-17.3h0a17.3,17.3,0,0,1,17.3-17.3h57a17.3,17.3,0,0,1,17.3,17.3h0A17.31,17.31,0,0,1,2169.87,1695.6Z"/><path class="cls-22" d="M2027.63,1695.6h-57a17.31,17.31,0,0,1-17.3-17.3h0a17.3,17.3,0,0,1,17.3-17.3h57a17.3,17.3,0,0,1,17.3,17.3h0A17.31,17.31,0,0,1,2027.63,1695.6Z"/><path class="cls-22" d="M1885.39,1695.6h-57a17.31,17.31,0,0,1-17.3-17.3h0a17.3,17.3,0,0,1,17.3-17.3h57a17.3,17.3,0,0,1,17.3,17.3h0A17.31,17.31,0,0,1,1885.39,1695.6Z"/><rect class="cls-14" x="2237.78" y="1543.43" width="91.62" height="70.16" rx="17.78"/><rect class="cls-14" x="2095.54" y="1543.43" width="91.62" height="70.16" rx="17.78"/><rect class="cls-14" x="1953.3" y="1543.43" width="91.62" height="70.16" rx="17.78"/><rect class="cls-14" x="1811.06" y="1543.43" width="91.62" height="70.16" rx="17.78"/><rect class="cls-14" x="2237.78" y="1424.25" width="91.62" height="70.16" rx="17.78"/><rect class="cls-14" x="2095.54" y="1424.25" width="91.62" height="70.16" rx="17.78"/><rect class="cls-14" x="1953.3" y="1424.25" width="91.62" height="70.16" rx="17.78"/><rect class="cls-14" x="1811.06" y="1424.25" width="91.62" height="70.16" rx="17.78"/><rect class="cls-14" x="2237.78" y="1305.08" width="91.62" height="70.16" rx="17.78"/><rect class="cls-14" x="2095.54" y="1305.08" width="91.62" height="70.16" rx="17.78"/><rect class="cls-14" x="1953.3" y="1305.08" width="91.62" height="70.16" rx="17.78"/><rect class="cls-14" x="1811.06" y="1305.08" width="91.62" height="70.16" rx="17.78"/><rect class="cls-11" x="2255.97" y="768.96" width="5.22" height="21.24"/><rect class="cls-11" x="2242.06" y="775.04" width="5.22" height="15.15"/><rect class="cls-11" x="2269.75" y="762.62" width="5.22" height="27.57"/><rect class="cls-11" x="2283.29" y="755.08" width="5.22" height="35.12"/><rect class="cls-11" x="1855.99" y="778.24" width="40.85" height="10.65"/><rect class="cls-11" x="1845.18" y="772.63" width="45.17" height="21.86"/><path class="cls-19" d="M1908.77,258.45h420.64a0,0,0,0,1,0,0V623.67a0,0,0,0,1,0,0H1861.68a0,0,0,0,1,0,0V305.55A47.09,47.09,0,0,1,1908.77,258.45Z"/><rect class="cls-23" x="1900.12" y="428.48" width="390.84" height="5.45"/><rect class="cls-23" x="1900.12" y="499.69" width="390.84" height="5.45"/><rect class="cls-23" x="1900.12" y="597.24" width="390.84" height="5.45"/><path class="cls-17" d="M1574.7,1660.31c-43.38-6.81-99-10.9-159.75-10.9-67.46,0-128.68,5-173.74,13.26L1192,1663l-27.72-3.36v37.28c0,26.25,112.24,47.53,250.7,47.53s250.7-21.28,250.7-47.53v-37.28Z"/><ellipse class="cls-24" cx="1414.95" cy="1659.66" rx="250.7" ry="47.53"/><ellipse class="cls-25" cx="1414.95" cy="1659.66" rx="202.47" ry="30.75"/><path class="cls-17" d="M1583.67,1601.52c-43.38-6.81-99-10.9-159.75-10.9-67.46,0-128.68,5.05-173.74,13.27l-49.24.35-27.72-3.37v37.28c0,26.25,112.24,47.53,250.7,47.53s250.7-21.28,250.7-47.53v-37.28Z"/><ellipse class="cls-26" cx="1423.92" cy="1600.87" rx="250.7" ry="47.53"/><ellipse class="cls-25" cx="1423.92" cy="1600.87" rx="202.47" ry="30.75"/><path class="cls-17" d="M1566.76,1554c-43.37-6.81-99-10.9-159.75-10.9-67.45,0-128.68,5.05-173.74,13.27l-49.23.35-27.73-3.37v37.28c0,26.25,112.24,47.53,250.7,47.53s250.7-21.28,250.7-47.53v-37.28Z"/><ellipse class="cls-27" cx="1407.01" cy="1553.34" rx="250.7" ry="47.53"/><ellipse class="cls-25" cx="1407.01" cy="1553.34" rx="202.47" ry="30.75"/><path class="cls-17" d="M1584.46,1498.9c-43.38-6.81-99-10.9-159.76-10.9-67.45,0-128.67,5-173.73,13.27l-49.24.35-27.72-3.36v37.27c0,26.25,112.24,47.54,250.69,47.54s250.7-21.29,250.7-47.54v-37.27Z"/><ellipse class="cls-28" cx="1424.7" cy="1498.26" rx="250.7" ry="47.53"/><ellipse class="cls-25" cx="1424.7" cy="1498.26" rx="202.47" ry="30.75"/><path class="cls-5" d="M1309.42,1421.7s-4.76,23.93-7.43,31.68-1.22,15.43,2.38,16.4,40.38,0,40.38,0,8.12-1,5.23-11.36-12.68-18.93-16.28-36.72S1309.42,1421.7,1309.42,1421.7Z"/><path class="cls-5" d="M1481.62,1421s4.08,16.89,2.64,27.55,3.36,21.67,15.14,21.67h67.54s10.32-7.83-5.42-13.38-42.17-19.49-50.1-35.84S1481.62,1421,1481.62,1421Z"/><path class="cls-29" d="M1282.46,935.7s-52.54,97.39,21.79,484.39H1344L1379.85,928Z"/><path class="cls-29" d="M1360.63,937h75.61s65.35,234.51,89.7,483.11h-48.7l-125.72-379.41Z"/><path class="cls-19" d="M1267.09,969.66s37.82,6.4,90.67,0,86.53-2.16,86.53-2.16l-2.93-22.19-174.27,8.2Z"/><path class="cls-30" d="M1449.69,941.79c0,12.49,4.81,18.25-29.79,14.41-8.42-.93-20.7-1.19-34.64-1-11.85.14-24.88.59-37.74,1.19-34.17,1.59-67.09,4.21-73.11,4.86-10.94,1.19-8.76-7.8-10-46.36-1.23-39.36-11.47-128-16.64-162A12.51,12.51,0,0,0,1234,742.35c-3.3.37-7.16.79-11.4,1.2-28.48,2.78-74.25,5.74-85.3-2.64C1108.5,719.08,1105,579,1105,579l30.41-5.3,32.67,114.59s46.15-10.79,81.71-25.21,89.38-22.1,89.38-22.1,32.62,3.52,47-.32,34.65-116.93,34.65-135.2-34.59-131.67-34.59-131.67l26.9-12.49s49,98,56.71,138.39-31.72,216.25-31.72,216.25C1446.81,839.91,1449.69,929.29,1449.69,941.79Z"/><path class="cls-6" d="M1363.3,540.83l9-22.56a29.46,29.46,0,0,0,8.18-30c-5.18-18.86-45.56-17.74-65-4s-17.88,26.66-21.71,28.31-15.61,2.19-18.55,13.33,1.2,19.51,5.07,22.92-10.35,10.06-1,29.81,23.86,20.69,29.88,26,13.69,13.19,23.7,9.15S1363.3,540.83,1363.3,540.83Z"/><path class="cls-4" d="M1317.15,644.67s5.46,9,19.77,12.86,27.4-3.2,31.72-6.79a11.59,11.59,0,0,0,4.11-8.69l-5.23-39-44.82-15.88S1324,638.38,1317.15,644.67Z"/><path class="cls-4" d="M1372.27,518.27s17.72,36.15,19.64,64.16-30.56,35.41-60.31,16.68c0,0-14.23,1.78-22.28-8.21s-1.85-20.41,5.59-19.88,11.26-3.78,9.12-11.14-8-27.24.43-27.41S1360.06,528.34,1372.27,518.27Z"/><path class="cls-6" d="M547.37,939.6l20.41-13.14a29.48,29.48,0,0,0,24.07-19.63c6.73-18.36-26.77-40.92-50.58-41.05s-30,11.31-34.12,10.43-14-7.29-22.84.07-10.36,16.58-9.19,21.6-14.27,2.18-18.17,23.66,7.41,30.7,9.23,38.5,3.49,18.69,14,21.21S547.37,939.6,547.37,939.6Z"/><path class="cls-3" d="M449.48,997.3s-.78,10.48,8.61,22,6.66,51.73,12.26,51.31,25.9-43.1,25.9-43.1L514.08,994l-26.64-40.31S458.68,996.15,449.48,997.3Z"/><path class="cls-3" d="M567.78,926.46s-6.59,39.71-21.3,63.63S501,1001.15,487.7,968.62c0,0-12.62-6.82-13.36-19.63s10.35-17.68,16.1-12.93,11.37,3.47,13.9-3.76,9.28-26.85,16.27-22.07S552,927.55,567.78,926.46Z"/><path class="cls-4" d="M1413.17,361.29s7.92-18.22,6-38.4-21.38-33.68-23.78-29.84,3.85,18.74-.48,30.76-6.15,48.81-6.15,48.81Z"/><circle class="cls-17" cx="1169.06" cy="287.58" r="237.68" transform="translate(139.06 910.88) rotate(-45)"/><circle class="cls-25" cx="1163.59" cy="273.29" r="237.68"/><circle class="cls-31" cx="1163.58" cy="273.29" r="176.56"/><path class="cls-17" d="M1328.5,210.25c.91,2.37,1.79,4.82,2.54,7.2a176.52,176.52,0,0,0-329.44,126c-1-2.27-2-4.68-2.92-7.06a176.57,176.57,0,0,1,101.86-228C1191.6,73.55,1293.66,119.15,1328.5,210.25Z"/><polygon class="cls-17" points="1118.66 354.84 1123.09 366.44 1138.88 365.75 1124.45 352.93 1118.66 354.84"/><polygon class="cls-17" points="1201.49 188.96 1197.39 178.25 1186.87 184.63 1195.82 193.51 1201.49 188.96"/><path class="cls-17" d="M1169.93,263.94q38.14-6.26,56.15,2.8t27.17,33q9.54,25,.49,49.58t-37,37.1l5.53,14.48a8.16,8.16,0,0,1-4.71,10.54h0a8.16,8.16,0,0,1-10.54-4.71l-5.43-14.19q-50.46,13.17-76.56-22.46a14.74,14.74,0,0,1,6.52-22.51h0a14.44,14.44,0,0,1,17.08,5.09q16.35,23.91,44.67,18.21l-30.48-79.71q-62.16,10.53-79.28-34.24-9.66-25.25.07-46.61T1119,176.38L1113.48,162a8.16,8.16,0,0,1,4.71-10.54h0a8.16,8.16,0,0,1,10.54,4.71l5.48,14.33q41.41-12.33,64.64,14c6.58,7.45,3.44,19.28-5.85,22.83h0a14.63,14.63,0,0,1-16.64-4.82q-12.27-15.34-33.86-10.36Zm-16.46,2.69-26.33-68.87q-28.08,16.78-16.73,46.44,6.1,16,17.23,20.05T1153.47,266.63Zm55.12,98.4q31.35-16.72,17.51-52.95-5.67-14.82-15.43-20.25t-31.25-3.08Z"/><path class="cls-25" d="M1165.84,253.23Q1204,247,1222,256t27.16,33q9.54,25,.5,49.58t-37,37.1l5.54,14.48a8.16,8.16,0,0,1-4.71,10.54h0A8.16,8.16,0,0,1,1203,396l-5.42-14.19Q1147.07,395,1121,359.37a14.73,14.73,0,0,1,6.53-22.5h0a14.43,14.43,0,0,1,17.07,5.08q16.37,23.91,44.68,18.21l-30.48-79.71q-62.17,10.55-79.29-34.24-9.65-25.23.07-46.61t35.32-33.93l-5.48-14.33a8.17,8.17,0,0,1,4.71-10.55h0a8.17,8.17,0,0,1,10.55,4.71l5.48,14.33q41.42-12.33,64.64,14c6.57,7.46,3.44,19.28-5.85,22.83h0a14.62,14.62,0,0,1-16.65-4.81q-12.27-15.36-33.85-10.36Zm-16.46,2.7L1123,187.06q-28.07,16.78-16.73,46.44,6.12,16,17.23,20.05T1149.38,255.93Zm55.11,98.4q31.37-16.74,17.51-52.95-5.67-14.83-15.42-20.25T1175.32,278Z"/><circle class="cls-17" cx="766.42" cy="1512.59" r="232.18"/><circle class="cls-25" cx="766.42" cy="1497.65" r="232.18"/><circle class="cls-32" cx="766.41" cy="1497.65" r="172.48"/><path class="cls-17" d="M938.88,1497.66c0,2.49,0,5-.2,7.47a172.42,172.42,0,0,0-344.53,0c-.15-2.44-.2-5-.2-7.47a172.48,172.48,0,0,1,172.49-172.49C861.67,1325.17,938.88,1402.39,938.88,1497.66Z"/><polygon class="cls-17" points="696.97 1556.38 696.97 1568.51 711.61 1573.39 702.92 1556.65 696.97 1556.38"/><polygon class="cls-17" points="830.42 1433.93 830.42 1422.73 818.59 1424.88 823.66 1436.1 830.42 1433.93"/><path class="cls-17" d="M775.47,1491.33q37,7.61,50.25,22.14T839,1553.06q0,26.1-16.85,45.41t-46.68,21v15.13a8,8,0,0,1-8,8h0a8,8,0,0,1-8-8v-14.84q-50.62-5.58-62-47.21a14.39,14.39,0,0,1,13.81-18.25h0a14.09,14.09,0,0,1,13.8,10.59q6.58,27.53,34.41,32.21V1513.7q-60.39-12.09-60.39-58.91,0-26.4,16.33-42.5t44.06-18.64v-15a8,8,0,0,1,8-8h0a8,8,0,0,1,8,8v15q42.07,3.19,54.09,35.34c3.39,9.1-3.59,18.79-13.31,18.79h0a14.3,14.3,0,0,1-13.51-10.2q-5.84-18.28-27.27-21.27Zm-16-3.28v-72q-31.47,5.52-31.46,36.53,0,16.71,8.72,24.31T759.51,1488.05Zm16,109q34.44-4.32,34.45-42.21,0-15.49-7-23.86t-27.44-13.71Z"/><path class="cls-25" d="M775.47,1480.13q37,7.61,50.25,22.14t13.28,39.6q0,26.1-16.85,45.41t-46.68,21v15.14a8,8,0,0,1-8,8h0a8,8,0,0,1-8-8v-14.84q-50.62-5.6-62-47.21a14.39,14.39,0,0,1,13.81-18.26h0a14.1,14.1,0,0,1,13.8,10.6q6.58,27.52,34.41,32.2V1502.5q-60.39-12.09-60.39-58.91,0-26.38,16.33-42.5t44.06-18.64v-15a8,8,0,0,1,8-8h0a8,8,0,0,1,8,8v15q42.07,3.19,54.09,35.34c3.39,9.1-3.59,18.79-13.31,18.79h0a14.3,14.3,0,0,1-13.51-10.2q-5.84-18.29-27.27-21.26Zm-16-3.28v-72q-31.47,5.52-31.46,36.54,0,16.7,8.72,24.3T759.51,1476.85Zm16,109q34.44-4.32,34.45-42.2,0-15.51-7-23.86t-27.44-13.72Z"/><path class="cls-5" d="M2654.43,781.9c-13.27,9.14-14.49,37,.34,41.19,12,3.39,45.54,43.35,58.05,58.64a14.51,14.51,0,0,0,18.07,3.75l.22-.13c9.36-5.22,28.24-43.61,22.58-62.26,0,0-.7-7.93,3-7.61s34.71,11.44,31.48,34.17-18.93,63.41-2.23,86.23c16,21.85,58.55,20,77.09,15.54s50.28,9.57,67.14,21.74c54,39,82.3-28,61.73-77.57s-91.58-47.71-109.73-40.79-29.61-20.87-38.84-62.63c-6.52-29.53-39.32-41.75-67.48-35.44-19.87,4.45-31.86,25-35.37,29.31C2733,795.09,2680.51,763.93,2654.43,781.9Z"/><path class="cls-4" d="M2652.17,821.75s-8.52,32.94-3.37,57.59,23.57,28.34,23.57,28.34l1.56,45.84,50.54-24.72s-8.78-25.57-8.18-42.77,15.29-26.23,14.81-34.75-7.47-11.45-12.89-5.11c-4.58,5.34-10.93,8.76-10.86.9s2.9-25.05-3.92-23.22S2663.12,828.14,2652.17,821.75Z"/><path class="cls-16" d="M2733.78,788.8s9.66,8.82,14.28,18.07,6.66,12.7,8.89,10.65c2.79-2.56-9.49-26.74-16.33-30.35S2732.17,788.22,2733.78,788.8Z"/><polygon class="cls-33" points="2710.2 1682.83 2708.56 1707.38 2677.06 1707.38 2673.88 1682.83 2710.2 1682.83"/><path class="cls-13" d="M2708.56,1707.38s3.69,32.73,0,35.19-82.64,0-82.64,0-8.18-2.87-2.86-9.41,49.5-18.82,54-25.78Z"/><polygon class="cls-33" points="2841.03 1670.22 2848.95 1696.22 2818.06 1702.4 2810.13 1678.95 2841.03 1670.22"/><path class="cls-13" d="M2849,1696.22s11.73,30.29,6.91,34.5c-5.47,4.77-15.31,2.09-28.35,4.36-12.81,2.22-24.31,5.63-28.62,6.19a152.52,152.52,0,0,1-24.07,1.29s-8.59-1.2-4.66-8.66c1.61-3.06,10.66-4.56,19.44-9.58,10.6-6.06,26.66-17.37,28.46-21.92Z"/><path class="cls-6" d="M2646.06,1188.08s-27.18,125.29-9.39,262.78,37.61,251.37,37.61,251.37l38.07-3.3s13.7-348,14.71-370.07-5.47-147.33-5.47-147.33Z"/><path class="cls-29" d="M2673.88,1193s14.8,184.54,52.56,297.14,85.9,204.11,85.9,204.11l36.61-8.61s-42.81-157.28-51.33-264c-4.46-55.83-.79-116.72-9.49-160.79-7.93-40.2-28.14-65.51-34.5-78C2740.29,1156.66,2673.88,1193,2673.88,1193Z"/><path class="cls-16" d="M2719.27,928l-.27.06-46,15.09s-45.35,77.22-43.49,98,7.62,167.26,7.62,167.26l128.36-5.62s-3.06-116.36,3.15-160.62c4.81-34.26-20.87-85.48-32.72-106.87A14.94,14.94,0,0,0,2719.27,928Z"/><polygon class="cls-34" points="2709.45 980.81 2702.25 1068.01 2739.18 1070.33 2709.45 980.81"/><path class="cls-35" d="M2919,1286.67a39.67,39.67,0,0,1-48,29.08l-74.37-18.22-41.52-10.16-36-8.81-83-20.33-148.59-36.38-1.14-.28a39.69,39.69,0,0,1-29.12-48l19.55-79.83L2499,1003.4a39.68,39.68,0,0,1,48-29.09l8.61,2.1,83,20.35,148.59,36.39,83,20.32h0l35.95,8.81,25.43,6.21a39.66,39.66,0,0,1,29.12,48Z"/><rect class="cls-36" x="2670.41" y="969.52" width="46.63" height="475.49" transform="translate(4509.17 -1120.35) rotate(103.81)"/><path class="cls-19" d="M2894.82,1126.37l-341-84.12a5.31,5.31,0,0,1-3.89-6.44l2.58-10.5a5.33,5.33,0,0,1,6.45-3.89l341,84.12a5.32,5.32,0,0,1,3.89,6.44l-2.59,10.5A5.32,5.32,0,0,1,2894.82,1126.37Z"/><rect class="cls-19" x="2876.46" y="1145.15" width="18.24" height="13.49" rx="3.53" transform="translate(1076.07 3677.59) rotate(-76.14)"/><rect class="cls-19" x="2845.91" y="1137.61" width="18.24" height="13.49" rx="3.53" transform="translate(1060.16 3642.19) rotate(-76.14)"/><rect class="cls-19" x="2815.36" y="1130.08" width="18.24" height="13.49" rx="3.53" transform="translate(1044.55 3607.02) rotate(-76.15)"/><rect class="cls-19" x="2784.81" y="1122.54" width="18.24" height="13.49" rx="3.53" transform="translate(1028.64 3571.64) rotate(-76.15)"/><rect class="cls-19" x="2754.26" y="1115" width="18.24" height="13.49" rx="3.53" transform="translate(1012.43 3536.04) rotate(-76.14)"/><rect class="cls-19" x="2723.71" y="1107.47" width="18.24" height="13.49" rx="3.53" transform="translate(996.49 3500.63) rotate(-76.14)"/><rect class="cls-19" x="2693.16" y="1099.93" width="18.24" height="13.49" rx="3.53" transform="translate(980.56 3465.23) rotate(-76.14)"/><rect class="cls-19" x="2662.61" y="1092.4" width="18.24" height="13.49" rx="3.53" transform="translate(964.66 3429.84) rotate(-76.14)"/><rect class="cls-19" x="2632.06" y="1084.86" width="18.24" height="13.49" rx="3.53" transform="translate(948.73 3394.44) rotate(-76.14)"/><rect class="cls-19" x="2601.51" y="1077.33" width="18.24" height="13.49" rx="3.53" transform="translate(932.83 3359.07) rotate(-76.14)"/><rect class="cls-19" x="2570.96" y="1069.79" width="18.24" height="13.49" rx="3.53" transform="translate(916.86 3323.64) rotate(-76.14)"/><rect class="cls-19" x="2540.41" y="1062.26" width="18.24" height="13.49" rx="3.53" transform="translate(901.27 3288.49) rotate(-76.15)"/><polygon class="cls-37" points="2870.18 1053.47 2844.45 1091.85 2831.73 1110.81 2742.47 1243.85 2736.96 1252.07 2719.17 1278.56 2636.18 1258.23 2727.41 1122.26 2738.19 1106.15 2748.8 1090.35 2761.52 1071.39 2787.19 1033.15 2870.18 1053.47"/><path class="cls-37" d="M2638.6,996.76l-25.5,38-12.72,19-12.33,18.35v0l-9.05,13.53-49,73,0,0v0l-14.58,21.74-27.81,41.43-1.14-.28a39.69,39.69,0,0,1-29.12-48l19.55-79.83,78.73-117.34Z"/><path class="cls-37" d="M2945.85,1075.2l-54.42,81.09-3.53,5.26L2833.24,1243l-5.5,8.21-7.87,11.7-5.5,8.22-17.7,26.37-41.52-10.16,17.75-26.44,5.5-8.21,7.87-11.7,5.5-8.22,55.45-82.67,9.84-14.66,10.61-15.8,12.72-19,25.77-38.42,25.43,6.21A39.8,39.8,0,0,1,2945.85,1075.2Z"/><path class="cls-16" d="M2719.27,928c-22.78,7.53-8.37,63.68-3.19,78.65S2743.36,1123,2739.54,1130s-41.87,124.24-41.87,124.24l22.44,8.8s52-88.49,65.56-135-11.82-126.91-21.82-160.85S2730.9,924.19,2719.27,928Z"/><path class="cls-4" d="M2686.31,1275.09c9.08,1.27,23.2,8.26,34-12.41l-22.56-8.64S2669.39,1272.71,2686.31,1275.09Z"/><path class="cls-25" d="M3089.79,548.89h-57.14a72.77,72.77,0,0,0-72.76,72.77v8.91a72.41,72.41,0,0,0,11,38.42l-40.71,53.63,82.18-22.19a72.45,72.45,0,0,0,20.31,2.9h57.14a72.76,72.76,0,0,0,72.76-72.76v-8.91A72.76,72.76,0,0,0,3089.79,548.89Z"/><path class="cls-19" d="M3076.18,677.25a49.57,49.57,0,1,1,20.88-94.54l-3.06,6.58a41.89,41.89,0,0,0-17.82-3.93,42.32,42.32,0,1,0,0,84.64,41.91,41.91,0,0,0,19.28-4.63l3.31,6.44A49,49,0,0,1,3076.18,677.25Z"/><rect class="cls-19" x="3013.85" y="616.93" width="73.67" height="7.25"/><rect class="cls-19" x="3013.85" y="631.19" width="73.67" height="7.25"/><path class="cls-38" d="M822.93,703.55H765.79A72.77,72.77,0,0,0,693,776.31v8.91a72.45,72.45,0,0,0,11,38.43L663.3,877.28l82.18-22.19a72.82,72.82,0,0,0,20.31,2.9h57.14a72.76,72.76,0,0,0,72.76-72.77v-8.91A72.76,72.76,0,0,0,822.93,703.55Z"/><path class="cls-11" d="M1665.18,72.05l-57,3.52a72.77,72.77,0,0,0-68.15,77.1l.55,8.9a72.35,72.35,0,0,0,13.33,37.67l-37.34,56,80.66-27.21a72.29,72.29,0,0,0,20.46,1.64l57-3.51a72.76,72.76,0,0,0,68.14-77.11l-.55-8.89A72.76,72.76,0,0,0,1665.18,72.05Z"/><path class="cls-19" d="M1616.26,153.6q-8.23,0-13.13-5.42t-4.9-14.5q0-9.92,5.18-15.61t14-5.71q8.5,0,13.21,5.29t4.71,14.86q0,9.57-5.26,15.33A17.79,17.79,0,0,1,1616.26,153.6Zm.78-35.12a10,10,0,0,0-8.35,3.93q-3.06,3.91-3.06,10.77t3,10.49a9.92,9.92,0,0,0,8.18,3.75,9.67,9.67,0,0,0,8.18-3.89q3-3.9,3-10.8,0-6.73-2.92-10.49A9.59,9.59,0,0,0,1617,118.48Zm52.65-4.89L1618.49,194h-8l51.15-80.36Zm-5.9,81q-8.24,0-13.13-5.45t-4.9-14.47q0-9.91,5.23-15.67t13.91-5.76q8.46,0,13.19,5.34t4.73,15q0,9.53-5.25,15.28A17.79,17.79,0,0,1,1663.79,194.62Zm.78-35.06a10.06,10.06,0,0,0-8.38,3.89q-3,3.9-3,10.8c0,4.42,1,7.87,3,10.38a9.93,9.93,0,0,0,8.18,3.76,9.67,9.67,0,0,0,8.18-3.93q2.94-3.92,3-10.77t-2.92-10.46A9.65,9.65,0,0,0,1664.57,159.56Z"/><path class="cls-29" d="M267.56,1226.27s-12.5,71,36.52,144.6,66.31,98.73,67.27,108.73-36.52,204.14-36.52,204.14l41.33,7.55s79.77-191.11,80.73-216.1-82.65-215.28-82.65-215.28Z"/><path class="cls-23" d="M488.61,1076c-.95,12.19-5.65,25.89-12.15,40.17-11,24-27.07,49.69-39.12,72.61-8.19,15.55-16.36,35.61-23.66,53.78v.06c-9.84,24.5-18.05,45.55-22.47,47.4-7.69,3.19-74.31-16.67-99.3-24.57s-50.63-27.33-50.63-27.33C256,1192,329.7,1086.91,365.07,1045.91s89.84-51.74,89.84-51.74C471.25,1006.33,491.16,1043.33,488.61,1076Z"/><path class="cls-2" d="M476.46,1116.18c-11,24-27.07,49.69-39.12,72.61-8.19,15.55-16.36,35.61-23.66,53.78.37-1.85,9-47.4,9.57-80.06.64-33.31,12.82-89.69,12.82-89.69Z"/><path class="cls-23" d="M445.2,1024.76c20.54-7.34,45.22,18.58,65.78,59S546.91,1154.83,552,1160s116,91.63,116,91.63l-18.58,21.78s-95.95-50-128.39-78.81-74.72-100-85-121.74S434,1028.76,445.2,1024.76Z"/><path class="cls-3" d="M668,1251.58s29.15,2.56,37.32,5.92,27.95,6.57,24.31,10-28.42,5.85-39.82,5.85-35.45-5.79-35.45-5.79Z"/><polygon class="cls-6" points="1368.32 1015.04 1444.29 1320.65 1368.01 1090.45 1368.32 1015.04"/><path class="cls-19" d="M1318.8,642s14.32,15,33.1,10.79S1372,636.65,1372,636.65l2,5.61s-1.44,16-21.15,17.69-32.87-8.24-37.1-14.93Z"/><circle class="cls-39" cx="2070.23" cy="972.51" r="138.79" transform="translate(-81.31 1748.72) rotate(-45)"/><g class="cls-40"><polygon class="cls-19" points="2237.02 740.92 1960.63 1171.49 1859.6 1171.49 2135.99 740.92 2237.02 740.92"/><path class="cls-19" d="M2079,740.92l-266.12,414.55a25.68,25.68,0,0,1-1.83-9.51v-66.34l217.44-338.7Z"/><path class="cls-19" d="M2329.41,766.45v24.46l-244.28,380.58h-50.52l275.83-429.71A25.51,25.51,0,0,1,2329.41,766.45Z"/></g><polygon class="cls-11" points="1974.68 937.4 2051.69 1020.28 2156.65 848.65 2198.73 875.2 2051.69 1070.94 1947.57 968.1 1974.68 937.4"/><rect class="cls-19" x="1871.61" y="775.28" width="15.7" height="16.58"/><rect class="cls-23" x="1941.47" y="309.87" width="117.24" height="25.65"/><rect class="cls-23" x="1960.36" y="366.33" width="77.52" height="8.97"/><rect class="cls-23" x="2060.31" y="366.33" width="77.52" height="8.97"/><rect class="cls-23" x="1960.36" y="397.08" width="90.53" height="8.97"/><rect class="cls-23" x="1908.59" y="462.2" width="159.41" height="8.97"/><rect class="cls-23" x="1908.59" y="528.84" width="65.86" height="8.97"/><rect class="cls-23" x="1990.66" y="528.84" width="47.21" height="8.97"/><rect class="cls-23" x="2213.84" y="528.84" width="9.85" height="8.97"/><rect class="cls-23" x="2234.66" y="528.84" width="56.3" height="8.97"/><rect class="cls-23" x="1908.59" y="563.44" width="79.7" height="8.97"/><rect class="cls-23" x="2005.63" y="563.44" width="32.25" height="8.97"/><rect class="cls-23" x="2213.84" y="563.44" width="9.85" height="8.97"/><rect class="cls-23" x="2234.66" y="563.44" width="56.3" height="8.97"/><rect class="cls-23" x="2183.96" y="462.2" width="107" height="8.97"/><rect class="cls-23" x="2077.09" y="397.08" width="146.6" height="8.97"/><rect class="cls-23" x="2149.37" y="366.33" width="38.76" height="8.97"/><rect class="cls-23" x="2204.31" y="366.33" width="19.38" height="8.97"/><rect class="cls-23" x="2084.34" y="309.24" width="168.51" height="26.91"/><path class="cls-19" d="M2374.9,258.45s-45.49,29.48-45.49,100-27.55-74.33-27.55-74.33l16.66-25.63Z"/><path class="cls-41" d="M1347.52,956.37c-34.17,1.59-67.09,4.21-73.11,4.86-10.94,1.19-8.76-7.8-10-46.36-1.23-39.36-11.47-128-16.64-162A12.51,12.51,0,0,0,1234,742.35c-3.3.37-7.16.79-11.4,1.2,0,0,42.62-19.83,58.81,5.41C1291.66,764.9,1323.23,880.92,1347.52,956.37Z"/><polyline class="cls-6" points="2416.34 1688.91 2556.79 1624.71 2557.96 1627.26 2412.7 1693.65"/><path class="cls-19" d="M796.34,843.37h-6V829.56q-13.16,0-22.21-5.48V815a30,30,0,0,0,4.83,3,40.72,40.72,0,0,0,5.58,2.28,40.3,40.3,0,0,0,6,1.45,36.12,36.12,0,0,0,5.85.5V785.48q-4-2.25-8-4.53a37.62,37.62,0,0,1-7.17-5.25,24.59,24.59,0,0,1-5.16-6.94,21.3,21.3,0,0,1-2-9.59,24.32,24.32,0,0,1,1.65-9,23.1,23.1,0,0,1,4.63-7.34,24.93,24.93,0,0,1,7.07-5.22,29.77,29.77,0,0,1,9-2.78v-12h6v11.77a51.11,51.11,0,0,1,10.17,1.12,33.2,33.2,0,0,1,7.41,2.51v8.66q-6.95-4.62-17.58-4.83v37.54a88.7,88.7,0,0,1,10.83,6.28,37.39,37.39,0,0,1,7,6.12,19.4,19.4,0,0,1,3.77,6.38,22.18,22.18,0,0,1,1.12,7.2,23.46,23.46,0,0,1-1.55,8.59,21.72,21.72,0,0,1-4.46,7,24.15,24.15,0,0,1-7.14,5.12,32.61,32.61,0,0,1-9.58,2.84Zm-6-101a17,17,0,0,0-10,5.35,15.25,15.25,0,0,0-3.66,10.44,20.3,20.3,0,0,0,.62,5.26,13.49,13.49,0,0,0,2.18,4.46,21.2,21.2,0,0,0,4.17,4.13,52.21,52.21,0,0,0,6.64,4.26Zm6,79.51q7-1.32,10.5-5.26a14.36,14.36,0,0,0,3.51-9.94,16,16,0,0,0-.76-5,14.9,14.9,0,0,0-2.42-4.46,23.2,23.2,0,0,0-4.33-4.2,59.42,59.42,0,0,0-6.5-4.23Z"/><path class="cls-38" d="M1104.08,1414a33.43,33.43,0,1,1,33.43-33.42A33.46,33.46,0,0,1,1104.08,1414Zm0-56.29a22.87,22.87,0,1,0,22.87,22.87A22.9,22.9,0,0,0,1104.08,1357.68Z"/></g></g></g></svg>