<svg xmlns="http://www.w3.org/2000/svg" xmlns:xlink="http://www.w3.org/1999/xlink" viewBox="0 0 477.91 399.63"><defs><style>.cls-1{fill:#eea886;}.cls-2{fill:#eea987;}.cls-3{fill:#74c4b8;}.cls-4{fill:#db9c7c;}.cls-5{fill:#5f8cc9;}.cls-6{fill:#5075a8;}.cls-7{fill:#eddad3;}.cls-8{fill:#252e3b;}.cls-9{fill:#a77860;}.cls-10{fill:#1d3b54;}.cls-11{fill:#1f3f59;}.cls-12{fill:#bbd070;}.cls-13{fill:#97a43c;}.cls-14{fill:#48753a;}.cls-15{fill:url(#linear-gradient);}.cls-16{fill:url(#linear-gradient-2);}.cls-17{fill:url(#linear-gradient-3);}.cls-18{fill:#6770b5;}.cls-19{fill:#ffc655;}.cls-20{fill:#3a3f47;}.cls-21{fill:#c79a42;}.cls-22{fill:#254380;}.cls-23{fill:#c5c6cf;}.cls-24{fill:#e2e3ed;}.cls-25{fill:#2d325e;}.cls-26{fill:#3f4685;}.cls-27{fill:#fccca2;}.cls-28{fill:#163342;}.cls-29{fill:#efaa88;}.cls-30{fill:#d6d6d6;}.cls-31{fill:#e8e8e8;}.cls-32{fill:#c2c2c2;}.cls-33{opacity:0.61;}.cls-34{fill:#dae8f5;}.cls-35{fill:#78c2ff;}.cls-36{fill:#1a598c;}.cls-37{fill:#2273b5;}.cls-38{fill:#4da8f2;}.cls-39{fill:#6eb2eb;}.cls-40{opacity:0.79;}.cls-41{fill:#91c7ff;}.cls-42{opacity:0.62;}.cls-43{fill:#fff;}.cls-44{fill:#4391d1;}.cls-45{fill:#ffb855;}.cls-46{fill:#22253b;}.cls-47{fill:#2d314f;}.cls-48{fill:#2b3b57;}.cls-49{fill:#353a3d;}.cls-50{fill:#d4d8e8;}.cls-51{fill:#e55353;}.cls-52{fill:#c98e72;}.cls-53{fill:#de9d7d;}.cls-54{fill:#464240;}.cls-55{fill:#eb4747;}.cls-56{fill:#202338;}.cls-57{fill:#5e5853;}.cls-58{fill:#91887f;}.cls-59{fill:#6e6760;}.cls-60{fill:#807066;}.cls-61{fill:#ffcb55;}.cls-62{fill:#c2bebc;}.cls-63{fill:#616161;}.cls-64{fill:#e0cec7;}.cls-65{fill:#1d2033;}.cls-66{fill:#292c47;}.cls-67{fill:#cf8c6c;}.cls-68{fill:#cfbeb6;}.cls-69{fill:#3d4169;}.cls-70{fill:#323657;}.cls-71{fill:#1d2133;}.cls-72{fill:#548ad1;}.cls-73{fill:#151624;}.cls-74{fill:#3f71d9;}.cls-75{fill:#88c0ff;}</style><linearGradient id="linear-gradient" x1="113.91" y1="182.63" x2="266.59" y2="182.63" gradientUnits="userSpaceOnUse"><stop offset="0" stop-color="#96cbff"/><stop offset="1" stop-color="#59f"/></linearGradient><linearGradient id="linear-gradient-2" x1="223.39" y1="217.83" x2="361.67" y2="217.83" xlink:href="#linear-gradient"/><linearGradient id="linear-gradient-3" x1="72.69" y1="132.75" x2="86.13" y2="225.07" gradientUnits="userSpaceOnUse"><stop offset="0" stop-color="#96cbff"/><stop offset="0" stop-color="#59f"/></linearGradient></defs><title>Element 2</title><g id="Ebene_2" data-name="Ebene 2"><g id="Ńëîé_1" data-name="Ńëîé 1"><path class="cls-1" d="M444.56,284.62s-.07-.92.22-1.24a3.55,3.55,0,0,0,.59-1.07c.09-.24.64-.91.33-1s-.95,1.06-1.13,1.28-.38-1-.59-1.17-2.23.38-2,1.19a8.61,8.61,0,0,0,.88,1.77c.07.14.3.74.3.74Z"/><path class="cls-2" d="M454.67,329.47s-2.88,6.26-3.88,7.51-3.26,5.18-3.16,5.94A6.22,6.22,0,0,0,448.7,346a13.84,13.84,0,0,1,1.29,6c-.08,1.11-.74,7.59-.61,8.13s-1.75.66-1.73-.07A82.82,82.82,0,0,0,446,349.84c-.58-2-2.53-5.81-2.4-6.94s1.37-6.5,1.85-8.12c.84-2.88,2.48-7.91,2.76-8.56S455.77,320.88,454.67,329.47Z"/><path class="cls-2" d="M457.73,323.49s2.23,2.67,1.47,5.67-2.63,9.62-2.74,10.7-.8,2.79.07,2.75a15.52,15.52,0,0,1,5,.27c1.59.35,3.84-.07,5.46,0,.64,0,.6,1.27,0,1.74s-11.46,2.28-13.48,1.85c-.87-.19-1.29-1.26-1.55-4.53-.12-1.47.05-6.53-.16-8.29a30.62,30.62,0,0,1,0-4.48S448.69,321.46,457.73,323.49Z"/><path class="cls-3" d="M447.13,326.56a21.21,21.21,0,0,0,5.78,4.25,3.65,3.65,0,0,0,.68.13,9.92,9.92,0,0,1,2.57-4,5,5,0,0,1,4.49-1.24c0-.05,0-.14,0-.2h0a5.53,5.53,0,0,0-.93-1.93h0c-6.75,2.22-11.32,1.51-11.86,1.42h-.05C447.58,325.34,447.13,326.56,447.13,326.56Z"/><path class="cls-1" d="M473.93,322.26a2.13,2.13,0,0,1,.7.42,3.47,3.47,0,0,0,.85.49,9.3,9.3,0,0,1,1.27.92,8.88,8.88,0,0,0,.47.9c.16.15.53.41.4.54s-.54,0-.54,0a.3.3,0,0,1,.06.31c-.16.3-.38.3-.38.3a.54.54,0,0,1-.05.35.6.6,0,0,1-.43.23.58.58,0,0,1-.22.31.53.53,0,0,1-.49,0s-.24.27-.43.2a1.46,1.46,0,0,1-.43-.32,5.8,5.8,0,0,1-1.23-2.26,2.65,2.65,0,0,0-1.3-1.57Z"/><path class="cls-4" d="M477,325.39s-.76-1-1.19-1-.17.36-.17.36-.25-.37-.57-.21,0,.59,0,.59a.36.36,0,0,0-.52,0c-.25.28.09.57.09.57s-.55-.13-.48.33a1.87,1.87,0,0,0,.95,1.2s.2.08.43-.2a.5.5,0,0,0,.71-.35s.63-.09.48-.58A.44.44,0,0,0,477,325.39Z"/><path class="cls-5" d="M452.72,303.48s-1.41-2-2-3a30.55,30.55,0,0,1-2.1-5.89c-.27-1.41-3.79-10.73-3.79-10.73l-2.1,1.31s2.54,8.39,2.81,9.16c.4,1.15,1.53,5.39,1.83,6.35.24.77,1,2.67,1.25,3.79s1.07,3.5,1.07,3.5Z"/><path class="cls-6" d="M444.23,339.24s1.47,1.8,12.12,1.8c0,0,6.36-12.68,4.08-16.36-2-3.22-12.24-1-12.24-1S445.86,327.35,444.23,339.24Z"/><path class="cls-7" d="M455.31,302.87a17.09,17.09,0,0,1-2.32.61c-.58,0-3.16,2.62-3.68,3.61s-.34,2.62.22,4.56-.27,2.47-.15,4.36a42.88,42.88,0,0,1-.25,6.84c-.21,1,9,2.41,11.39.81,0,0-1.71-3.46-1.93-4a8.56,8.56,0,0,1,.67-3.54c.33-.6,2.71-5.47,2.71-5.47s1.88-4.32.78-5.43-3.84-1.64-4.34-1.89A9,9,0,0,0,455.31,302.87Z"/><path class="cls-1" d="M460,292.11c-.83-.62-4-2.5-6.2,1.65s-.72,8,1.77,7.9,4.82-2.76,5.67-5A3.62,3.62,0,0,0,460,292.11Z"/><path class="cls-8" d="M453.76,293.76s1-3.82,4.79-2.79,3.83,4.43,2.83,6.58a5.81,5.81,0,0,1-2.93,2.86s.7-1.78.12-2.48-3.2-2.54-3.79-5.13A3.5,3.5,0,0,0,453.76,293.76Z"/><path class="cls-8" d="M458.55,294.81a2.64,2.64,0,1,0,2.57-3A2.82,2.82,0,0,0,458.55,294.81Z"/><path class="cls-1" d="M454.77,300.88s-.06,3.05-.25,4c0,0,1.48,1.92,3.89-1.52a5.12,5.12,0,0,1,.26-3.63C459.55,297.76,454.77,300.88,454.77,300.88Z"/><polygon class="cls-1" points="454.52 304.9 454.32 306.46 456.46 305.25 454.52 304.9"/><path class="cls-5" d="M458.7,303.49s-2.75,3.19-3.06,4.71a139.05,139.05,0,0,0-.53,16.92c.3,3.79,6.4.4,6.4.4s-3-6.55-.9-11.22,3.3-7.79,3.3-7.79a4.25,4.25,0,0,0-2.31-2.13C460.08,303.94,458.7,303.49,458.7,303.49Z"/><path class="cls-5" d="M449.1,307.53a8.3,8.3,0,0,0,.62,5.21s-.59,3.81-.8,5.1-1.16,6.15-1.16,6.15l1.48,1.15a.45.45,0,0,0,.73-.36c0-3.79.39-18.13,4.06-21.53l-1.33.22S449.55,305.65,449.1,307.53Z"/><path class="cls-1" d="M458.44,297a.61.61,0,0,1,.93,0c.21.28.18.92-.48,1.56S456.6,299.31,458.44,297Z"/><path class="cls-9" d="M454.75,301.55v.6s1.31.44,3.36-1.49A3.86,3.86,0,0,1,454.75,301.55Z"/><path class="cls-7" d="M458.24,302.61a6.18,6.18,0,0,1-3.52-.16l-.26.86-.46,3.53s3.57-2,3.58-2.11a14,14,0,0,1,.94-1.31Z"/><path class="cls-5" d="M461.81,304.45a3.56,3.56,0,0,1,1.49,1.12,10.45,10.45,0,0,1,1.64,3c.24.54,3.28,5.75,3.46,5.86s1.61,2,2.77,3.61l3.39,4.63-1.92,1.53s-4.79-5.64-6-7.21-5.77-6.61-5.77-6.61S458.12,305.79,461.81,304.45Z"/><path class="cls-10" d="M446.07,363.84c2.15-1.87,1.57-3.8,1.57-3.8a3.13,3.13,0,0,1,1.56-.13c.7.17,1.07,1.84.79,2.37l-.21,2.73-.36,0,.12-1.46c-.42,1.41-.81,3.18-1.76,3.46-1.28.37-3.32.15-3.55-.29S446.07,363.84,446.07,363.84Z"/><path class="cls-1" d="M447.64,360a17.82,17.82,0,0,1-.54,2c-.31.83-1.73,2.68-1.69,2.92a2.24,2.24,0,0,0,2.31,0,6.43,6.43,0,0,0,1.49-3.35,16.36,16.36,0,0,0,.15-1.7A1.33,1.33,0,0,0,447.64,360Z"/><path class="cls-1" d="M465.93,344.9a6.1,6.1,0,0,1,1.84-.18c.52.13,3.48.23,3.94.67s1.25,1.4,1.5,1.29,1.3-.84.31-2.31-1.3-1.82-1.91-1.92a8,8,0,0,1-2.86-1.14l1.83-1.24-.26-.39a17.31,17.31,0,0,1-3.16,1.19c-.64,0-2,1.42-2.19,2.62A1.22,1.22,0,0,0,465.93,344.9Z"/><path class="cls-11" d="M471.71,345.39s-.93-1.76-1.94-2.06-2.92-.22-3.92-1.56c0,0,.27-.93,2.26-1.16a20.48,20.48,0,0,0,2.21-.93l.26.39-1.83,1.24a9.55,9.55,0,0,0,3.29,1.13s2.41,2.45,1.93,3.58a1.41,1.41,0,0,1-.74.77C472.72,347,471.71,345.39,471.71,345.39Z"/><path class="cls-12" d="M352.88,146.1s41.81,25.68,17.42,88.05-9.66,86.33-9.66,86.33S276.51,253.28,352.88,146.1Z"/><path class="cls-13" d="M421.75,137s42.3,43.25-5.57,110.53-37.43,100.35-37.43,100.35S298.29,242.24,421.75,137Z"/><path class="cls-14" d="M364,328.39c-24,6.61-7.61-64.45,27.38-88.55s67.49-28.47,86.48-50.67C477.89,189.17,482.17,295.84,364,328.39Z"/><path class="cls-15" d="M254,166.86a65.19,65.19,0,0,0-6.8-16.91l7.23-10.61-9.75-10-9.75-10-10.77,7a65.21,65.21,0,0,0-16.76-7.17l-2.39-12.61-14-.16-13.95-.15-2.67,12.55a65.17,65.17,0,0,0-16.91,6.79L147,118.4l-10,9.75-10,9.76,7,10.77a65.24,65.24,0,0,0-7.18,16.76l-12.6,2.39-.16,13.94-.15,13.95,12.54,2.67a65.12,65.12,0,0,0,6.8,16.92L126,225.92l9.75,10,9.75,10,10.77-7a65.36,65.36,0,0,0,16.76,7.17l2.39,12.61,13.95.15,14,.16L206,246.42a65.45,65.45,0,0,0,16.92-6.79l10.61,7.23,10-9.76,10-9.75-7-10.77a65.21,65.21,0,0,0,7.17-16.76l12.6-2.39.16-14,.16-13.94Zm-64.18,50A34.2,34.2,0,1,1,224.45,183,34.19,34.19,0,0,1,189.86,216.83Z"/><path class="cls-16" d="M347.62,238A58.48,58.48,0,0,0,351,222.05l10.64-4.25-2.25-12.25-2.25-12.24-11.46-.2a58.07,58.07,0,0,0-8.83-13.67l4.52-10.52-10.25-7.07-10.25-7.07-8.24,8a58.1,58.1,0,0,0-15.91-3.4l-4.25-10.65-12.25,2.25L268,153.19l-.19,11.46a58.5,58.5,0,0,0-13.67,8.83L243.62,169l-7.07,10.25-7.07,10.25,8,8.23A58.56,58.56,0,0,0,234,213.61l-10.64,4.26,2.25,12.24,2.25,12.25,11.46.2a58,58,0,0,0,8.83,13.66l-4.52,10.53,10.25,7.07,10.25,7.07,8.24-8a58.1,58.1,0,0,0,15.91,3.4L292.56,287l12.25-2.24,12.25-2.25.19-11.46a58.23,58.23,0,0,0,13.67-8.84l10.52,4.52,7.07-10.25,7.07-10.25Zm-72.42,5a30.53,30.53,0,1,1,42.46-7.79A30.52,30.52,0,0,1,275.2,243Z"/><path class="cls-17" d="M111.27,187.28a34.34,34.34,0,0,0,2-9.35l6.26-2.5-1.32-7.19-1.33-7.2-6.73-.11a34.31,34.31,0,0,0-5.18-8l2.65-6.18-6-4.15-6-4.16-4.84,4.68a33.91,33.91,0,0,0-9.35-2l-2.5-6.25-7.19,1.32-7.19,1.32-.12,6.73a34.35,34.35,0,0,0-8,5.19l-6.18-2.65-4.15,6-4.15,6,4.67,4.84a34.59,34.59,0,0,0-2,9.34l-6.25,2.5,1.32,7.19,1.32,7.2,6.73.11a34.67,34.67,0,0,0,5.19,8l-2.65,6.18,6,4.15,6,4.16,4.84-4.68a33.83,33.83,0,0,0,9.35,2l2.49,6.25,7.2-1.32,7.19-1.32.12-6.73a34,34,0,0,0,8-5.19l6.19,2.65,4.15-6,4.15-6Zm-42.55,2.93a17.93,17.93,0,1,1,25-4.58A17.93,17.93,0,0,1,68.72,190.21Z"/><path class="cls-18" d="M113.91,287.65h87.67c-.16-1-.31-2.63-.44-4.15-.85-9.14-1.38-15.2-1.38-15.2S127.87,232.66,120,256.09c-2.53,7.52-4.33,16.93-5.56,27.41C114.24,285.07,114.07,286.68,113.91,287.65Z"/><path class="cls-19" d="M188.1,166.5s4,23.85,7.24,39.6h0c1.31,6.38,2.5,11.44,3.23,13,.92,2,8.45,10.09,17.66,19.57,16.17,16.64,37.53,37.6,37.53,37.6l8.34-15.85s-19-22.24-31.82-37.08c-6-6.86-10.6-12.15-11.45-12.91-2.69-2.4-5.81-26.1-10.2-45.63s-13.17-30.32-13.17-30.32Z"/><path class="cls-1" d="M216.23,238.71c16.17,16.64,37.53,37.6,37.53,37.6l8.34-15.85s-19-22.24-31.82-37.08C226.33,225.32,219.1,229.93,216.23,238.71Z"/><path class="cls-19" d="M115.38,273.22c-.6,2.12,81.17,3,81.17,3s-3.47-25.51-5.45-31.45,5.63-41.47,6.9-53.07c1-9.28,3.58-50.82-2.54-57.17-6.4-6.63-29.44-13.58-29.44-13.58l-33.58,1.25a52.31,52.31,0,0,0-9.5,3c-4,1.84-26.62,9.91-30.3,21.23s22.61,47.72,22.61,47.72,0,1.64.13,4.32h0c.1,3.57.25,9,.39,14.9.17,7.63.33,16,.33,22.17C116.1,250,116,271.1,115.38,273.22Z"/><path class="cls-1" d="M156.81,48S186,41.4,179.3,78.09s-13.67,39.57-31.26,32S132,79,131.15,67.44,147.51,48.37,156.81,48Z"/><path class="cls-1" d="M164.52,130.36S151.61,144,131.21,131.6c0,0,4.56-29.66,2.16-44.11S160,109.88,160,109.88c-.38.2-.63,1.58-.69,3.54a40.42,40.42,0,0,0,.3,5.88C160.2,124.1,161.7,129.18,164.52,130.36Z"/><path class="cls-1" d="M141.17,73.22c-.38-3.24-6.78-4.42-7.29.43s2.91,13.37,5.33,12.53S141.7,77.68,141.17,73.22Z"/><path class="cls-20" d="M132.57,86.27s.75-11.56,5-11.92,4.87,4.29,4.87,4.29l4.27.8s-1.35-10.13,2.86-11.9,27.32,5.58,30.7,2.61,1.8-23.53-4.33-26.34-23-9.12-35.4-.73c0,0-9.65-1.1-11.09,6.69S129.94,80.47,132.57,86.27Z"/><path class="cls-9" d="M159.6,119.3c-21-6.49-22.63-19.17-22.65-19.36,6.93,11.91,22.35,13.48,22.35,13.48A40.42,40.42,0,0,0,159.6,119.3Z"/><path class="cls-1" d="M122.59,125.34S138,156,162.91,154.05s4.25-32.83,3.11-33.11S140.48,114.57,122.59,125.34Z"/><path class="cls-19" d="M88.76,240.08c1.14,1.32,16.14,7.35,33.09,13.88h0c23.15,8.92,49.27,17.36,49.27,17.36l5.94-12.75s-27.35-14.86-45.83-25.28c-8.73-4.92-15.48-8.85-16.43-9.76-3-2.83-3.74-7.37-1.56-15.28S120.46,164,121,159.71s-1.42-15.56-12-16.13S93,146,93,146s-2.67,1.11-4.65,26.86S86.08,237,88.76,240.08Z"/><path class="cls-21" d="M115.38,198.45h0c.1,3.57.25,9,.39,14.9,10.35-25.39,4.37-45.65,4.27-46C121.16,174.25,115.46,198.11,115.38,198.45Z"/><path class="cls-21" d="M195.34,206.1h0c1.31,6.38,2.5,11.44,3.23,13,3.54-17.12.36-39,.36-39C198.44,190.57,195.34,206.1,195.34,206.1Z"/><path class="cls-1" d="M121.85,254h0c23.15,8.92,55.8,16.38,55.8,16.38l4.63-11.13s-32.57-15.5-51.05-25.92C131.23,233.29,124.51,236.57,121.85,254Z"/><path class="cls-1" d="M182.28,259.21s6.77-1,11.46-2.14c3.62-.84,12.63.32,14.92,2.64s9.6,18.53,11,19.52-.71,3.28-3.13,2.13c0,0-1.84,3.2-7.33.54s-9.61-4.56-12.49-5.58-19.63-6.17-19.63-6.17S178,257.49,182.28,259.21Z"/><path class="cls-1" d="M206.25,261.09a47.19,47.19,0,0,1,5.49,3c1.13.93,5.74,4.38,6.85,5.19s-1.68,3.12-9.91-.45S206.25,261.09,206.25,261.09Z"/><polygon class="cls-22" points="206.63 213.46 199.04 283.98 298.88 283.98 306.47 213.46 206.63 213.46"/><rect class="cls-22" x="191.1" y="277.64" width="16.67" height="6.34" transform="translate(398.88 561.62) rotate(180)"/><polygon class="cls-23" points="96.88 93 67.73 90.78 67.37 107.83 93.62 108.14 96.88 93"/><polygon class="cls-24" points="95.64 91.4 67.73 90.78 67.37 107.83 93.62 108.14 95.64 91.4"/><path class="cls-2" d="M96.32,71.55s-.67.72-.93.39-.55-.78-.55-.78Z"/><path class="cls-2" d="M97.71,64.59l-.9,4c.27-.32.74-.83.88-.68s-.51,1.3-.64,1.76a10.72,10.72,0,0,1-.46,1.49l-.33.64-1.42-.6s.1-2.83.16-3.46c.1-1,2.12-3.26,2.32-3.28C97.67,64.38,97.71,64.59,97.71,64.59Z"/><path class="cls-25" d="M68.73,133.6a6.9,6.9,0,0,1-.76,1.34c-.34.38-1.65,1.05-1.67,2.19s2.18.92,3,.88.93-.69,1.3-1.38.73-.58.8-1.14a7,7,0,0,0-.25-1.83Z"/><path class="cls-25" d="M87.8,139.82a5.88,5.88,0,0,0,2.39,1.55c1.21.28,2,.62,2,1.34s-3.5,1.15-4.88.41c-2.06-1.11-2.27-.78-2.5-1.33s.3-2,.29-2.15S87.8,139.82,87.8,139.82Z"/><path class="cls-26" d="M85.05,103.57s1.14,9.12,1.62,12.21c.55,3.61.72,6.59.87,8.46.18,2.34.43,14.68.57,15.37s-3.28.3-3.28.3-2.3-16-2.9-18.52c-.55-2.34-2-11.94-2.58-11.31s-6.91,7.55-7.33,9.38-.7,14.16-.7,14.16-2.44,1.16-3.15.58c0,0-1.49-10.82-1.19-14.26.11-1.31,4-12.3,6.27-18.07C74.46,98.82,85.05,103.57,85.05,103.57Z"/><path class="cls-27" d="M81.63,81.66a21.7,21.7,0,0,1,3.7,1.08c.42.38,1.13,4,1.17,5a40.06,40.06,0,0,1-.91,6.81c-.45,1.57-.45,9.79-.27,11.09a47.26,47.26,0,0,1-13.24.29s1.22-7.13,1-9.29c-.3-2.77-1-9.15-1-9.15s.93-4.28,1.52-4.77,4.67-1.25,4.67-1.25Z"/><path class="cls-1" d="M80.38,71.38s4-1.43,3.7,3.88-1.26,5.83-3.88,5.06-2.8-4.13-3.12-5.74S79.07,71.6,80.38,71.38Z"/><path class="cls-1" d="M82.28,82.51s-2.1,1.66-4.07-1a13.89,13.89,0,0,0-.47-4.13c-.59-2,4.15,2.71,4.15,2.71s-.06.23,0,.51a4.79,4.79,0,0,0,.15.82C82.16,82.09,82.12,82,82.28,82.51Z"/><path class="cls-28" d="M77.61,77.21s0-1.41.59-1.54.89.7.89.7l.47,0s-.4-1.44.16-1.76,3.93,0,4.35-.47-.15-3.36-1.06-3.65-3.41-.9-5,.5a1.5,1.5,0,0,0-1.44,1.7A13,13,0,0,0,77.61,77.21Z"/><path class="cls-9" d="M82,81.42c-3.09-.55-3.53-2.32-3.54-2.35a4.51,4.51,0,0,0,3.39,1.53A4.79,4.79,0,0,0,82,81.42Z"/><path class="cls-1" d="M78.88,75.08c-.17-.47-1.17-.42-1.08.32s.91,1.89,1.24,1.68S79.11,75.73,78.88,75.08Z"/><path class="cls-1" d="M77.13,81.73s1.83,3.8,4.59,3.53,1.19-2.93.94-3.36C82.66,81.9,81,80.82,77.13,81.73Z"/><path class="cls-27" d="M94.56,78.88a77.38,77.38,0,0,0,2.58-7.34L94.73,71s-1.33,2.93-2,5A16.36,16.36,0,0,1,92,78.08c-.09.16-4.26,3.23-4.71,3.46a10.88,10.88,0,0,0-3,1.63,2,2,0,0,0-.45,2c1.73,2.28,5-.61,5-.61S93.45,81,94.56,78.88Z"/><path class="cls-27" d="M90.47,83.16s-3.87,4.13-4,5.68c-.11,1.1-.74-3.33-.74-3.33Z"/><rect class="cls-13" x="65.11" y="89.94" width="28.62" height="18.03" transform="translate(1.19 -0.94) rotate(0.69)"/><path class="cls-29" d="M69.44,108.76a1.49,1.49,0,0,1-.11-.51s0-.31.06-.54a.52.52,0,0,0,0-.17,3.16,3.16,0,0,1,0-1c.1-.41.59-1.83.59-1.83l1.28.2,1.12-.13a19,19,0,0,1,.76,2.83.36.36,0,0,1,0,.11,3.64,3.64,0,0,1-.32.72c0,.06-.28.66-.46.71a.64.64,0,0,1-.62-.09,1.51,1.51,0,0,1-.83,0,1,1,0,0,1-.82-.17S69.61,109,69.44,108.76Z"/><path class="cls-27" d="M75.37,82.69c.44.17.89,1.23.52,3.29a9.07,9.07,0,0,1-1.44,3.67,30.26,30.26,0,0,0-2.16,4.45c0,1.33-.07,4.84,0,5.11.06.46.3,5.76.3,5.76l-2.82.64s-.48-6-.71-7.77a19.5,19.5,0,0,1,0-4.69,38.65,38.65,0,0,1,1.89-6.44C71.1,86.38,72.51,81.54,75.37,82.69Z"/><polygon class="cls-30" points="34.26 154.66 20.39 132.36 27.54 135.71 34.26 154.66"/><polygon class="cls-31" points="34.26 154.66 33.57 141.32 28.46 138.32 34.26 154.66"/><polygon class="cls-32" points="23.58 137.49 21.78 139.79 34.26 154.66 23.58 137.49"/><g class="cls-33"><rect class="cls-34" y="191.71" width="103.64" height="74.41" rx="7.18"/></g><path class="cls-35" d="M48.06,210.5A21.26,21.26,0,1,0,8,224.82c.16.45.34.89.52,1.32A21.26,21.26,0,0,0,48.06,210.5ZM33.41,232.66a15.91,15.91,0,0,1-20-8.64c-.14-.33-.27-.66-.39-1a15.94,15.94,0,1,1,20.37,9.64Z"/><path class="cls-36" d="M12.83,212.91l-5.08-1.59A21.31,21.31,0,0,1,27.41,196.4l.16,5.32a16,16,0,0,0-14.74,11.19Z"/><path class="cls-37" d="M13.43,224l-4.88,2.12c-.18-.43-.36-.87-.52-1.32a21.19,21.19,0,0,1-.28-13.5l5.08,1.59A15.86,15.86,0,0,0,13,223C13.16,223.36,13.29,223.69,13.43,224Z"/><path class="cls-38" d="M11.85,231.43a21,21,0,0,1-3.3-5.29L13.43,224a16.08,16.08,0,0,0,2.47,4Z"/><path class="cls-39" d="M13.17,262a10.77,10.77,0,1,0,9.22-19.47c-.22-.11-.44-.2-.66-.29a10.94,10.94,0,0,0-3.08-.72A10.78,10.78,0,0,0,13.17,262Zm-2.69-13.19a8.09,8.09,0,0,1,8-4.6,7.92,7.92,0,0,1,2.31.54l.49.21a8.09,8.09,0,0,1,2.43,12.85,8.08,8.08,0,0,1-13.18-9Z"/><path class="cls-36" d="M24.93,248.52l2.39-1.26a10.76,10.76,0,0,1-1.7,12.39l-2-1.84a8.1,8.1,0,0,0,1.27-9.29Z"/><path class="cls-37" d="M20.74,244.75l1-2.51c.22.09.44.18.66.29a10.73,10.73,0,0,1,4.93,4.73l-2.39,1.26a8,8,0,0,0-3.7-3.56Z"/><path class="cls-38" d="M18.65,241.52a10.94,10.94,0,0,1,3.08.72l-1,2.51a7.92,7.92,0,0,0-2.31-.54Z"/><g class="cls-40"><path class="cls-41" d="M103.64,198.89v60a7.19,7.19,0,0,1-7.19,7.19H56.93V191.71H96.45A7.18,7.18,0,0,1,103.64,198.89Z"/></g><g class="cls-42"><rect class="cls-43" x="62.93" y="199.43" width="34.7" height="3.78" rx="0.94"/></g><g class="cls-42"><rect class="cls-44" x="62.93" y="207.54" width="34.7" height="3.78" rx="0.94"/></g><g class="cls-42"><rect class="cls-44" x="62.93" y="216.84" width="34.7" height="42.75" rx="3.15"/></g><rect class="cls-39" x="32.5" y="243.9" width="14.73" height="3.93" rx="0.98"/><rect class="cls-38" x="32.5" y="250.3" width="14.73" height="3.93" rx="0.98"/><rect class="cls-37" x="32.5" y="256.7" width="14.73" height="3.93" rx="0.98"/><rect class="cls-45" x="35.89" y="283.84" width="271.35" height="4.3"/><path class="cls-1" d="M78.42,228s-.64-1.12.38-4.11a3,3,0,0,1,5.44-.78c1.07,1.86.71,3-.88,5.1S79.08,229,78.42,228Z"/><path class="cls-1" d="M86.29,279.45s.16,1.23.19,1.42,1.86-.11,1.86-.11l.15-1.46A10.49,10.49,0,0,0,86.29,279.45Z"/><path class="cls-46" d="M86.46,280.71a5.17,5.17,0,0,1-1.15,1.06c-.57.33-1.46.45-1.79.79s-.88,1.28,1.47,1.26,3.47.14,3.73-.26-.37-2.93-.37-2.93A6.44,6.44,0,0,1,86.46,280.71Z"/><path class="cls-1" d="M73.53,279.45s.16,1.23.19,1.42,1.86-.11,1.86-.11l.15-1.46A10.49,10.49,0,0,0,73.53,279.45Z"/><path class="cls-46" d="M73.7,280.71a5.17,5.17,0,0,1-1.15,1.06c-.57.33-2.65.59-3,.93s-.64,1.21,2.66,1.12c2.34-.07,3.47.14,3.73-.26s-.37-2.93-.37-2.93A9.54,9.54,0,0,1,73.7,280.71Z"/><path class="cls-47" d="M85.67,248.87a18.43,18.43,0,0,1,.82,5.47c-.13,2.53.49,5.3.74,7.94.28,3,1.42,9.92,1.46,11.5s-.18,6.61-.18,6.61l-2.29.05S84.3,268.25,83.8,267s-3-10.11-3-11.11S85.67,248.87,85.67,248.87Z"/><path class="cls-47" d="M76.18,248.56s-1.39,7.77-1.56,9.32-.27,7.49-.36,8.46-.55,12.67-1,14.1h2.55s2.62-8.5,2.62-12.52,1.73-8.75,2.85-11.41,3.69-2.71,4.38-7.64C85.67,248.87,77.11,247,76.18,248.56Z"/><path class="cls-1" d="M79.35,228.79a2.18,2.18,0,0,1,0,1.43c-.29.6,3.68.24,3.68.24a4.3,4.3,0,0,1,.33-2.25C83.88,227.19,79.35,228.79,79.35,228.79Z"/><path class="cls-48" d="M85.85,249.51s-1.43,1.46-9.8-.23l.13-.72,9.52.36Z"/><path class="cls-1" d="M78.75,230.42s-1.47.15-1.89.23-3.23-.51-3.81-.57a11.77,11.77,0,0,1-3.12-2,40.16,40.16,0,0,1-1.58-4.57c-.08-.77-1.38-.37-1.27.16.21,1,.48,3.44.62,4.14a11,11,0,0,0,.83,2.7,17.35,17.35,0,0,0,4.63,2.62A18.27,18.27,0,0,1,77,235h10.7s4.16-5.95,4.25-6.85-2.9-6.86-3.5-7.6-1.46.24-1.46.24,1.79,5.26,2,6-2.09,4-2.73,4-2.27-.19-3-.22a5,5,0,0,1-1.49-.35Z"/><path class="cls-19" d="M74.13,234.39a3.42,3.42,0,0,1,1.43,2.37,31,31,0,0,0,.84,4.66c.24.81-.21,6.67-.27,7.08s8.29,1.42,9.57.42c0,0,.36-5.47.51-7a39.45,39.45,0,0,1,1.1-5.83c.24-.51,3.14-4.57,3.26-5.11,0,0-1.5-2.39-2.58-2.42,0,0-1.71,2-2.26,2.09a32.39,32.39,0,0,1-4-.54s-.37.51-2.35-.09l-2.74.31c-.47.06-3.7-.4-3.7-.4s-1.3,2.19-1.07,3.29Z"/><path class="cls-1" d="M68.43,224s-.3-1.38.06-1.78a11.26,11.26,0,0,0,.72-.92c.05-.08.56-.38.56-.52s-.5-.32-.94.08-.72.5-.89.46a5.61,5.61,0,0,1-.46-1.88c0-.36-.16-1.32-.39-1.25s-.21.48-.21.48-.27-.72-.44-.58-.16.49-.16.49-.33-.4-.41-.11a1,1,0,0,0,0,.57s-.35-.19-.37.27a7.13,7.13,0,0,0,.34,2.3,17.47,17.47,0,0,1,1.26,2.25C67.21,224.38,68.43,224,68.43,224Z"/><path class="cls-1" d="M87.25,221.6a9.17,9.17,0,0,0-1.34-1.83,5.18,5.18,0,0,1-1.23-.53c-.42-.3-1-.55-1-.65s.53-.06,1.06.17.76.12.81,0a3.1,3.1,0,0,0-.45-1.16c-.15-.2-1.29-1.34-1.1-1.51s.93.46,1,.59-.59-1.24-.36-1.3.65.38.65.38,0-1.06,1.09.66c0,0-.24-.57.11-.38s.69,1.25.8,1.79a8.05,8.05,0,0,0,1,2.67C88.84,220.91,87.25,221.6,87.25,221.6Z"/><path class="cls-49" d="M83.36,228.21a4.42,4.42,0,0,1-1.64-.34c-1.11-.38-1.2-2.34-1.44-2.1a.7.7,0,0,1-1.14-.14s.54-.72.29-1.06a2.58,2.58,0,0,0-.66-.6s.78-3.78,4.36-2.06C87.31,223.93,83.36,228.21,83.36,228.21Z"/><path class="cls-50" d="M79.35,230.22l.12-.54a28.89,28.89,0,0,1,3.53.13l.13.65A4.85,4.85,0,0,1,79.35,230.22Z"/><path class="cls-1" d="M79.91,225.29c.21-.35,1-.58,1.06.4.07.75-1.37,1.58-1.38.87A2.12,2.12,0,0,1,79.91,225.29Z"/><path class="cls-51" d="M68.37,223.72a2.27,2.27,0,0,0-1.22.38.76.76,0,0,0,.07.41,4.85,4.85,0,0,1,1.26-.4S68.47,223.81,68.37,223.72Z"/><path class="cls-49" d="M67.4,223.92a.37.37,0,0,0,.19.47.36.36,0,0,0,.28-.66A.37.37,0,0,0,67.4,223.92Z"/><path class="cls-12" d="M319.77,268.29s-23.24,19-13.89,35.89,15.34,3.15,15.34,3.15,7,2.69-2.13-17.92C314.8,279.69,319.77,268.29,319.77,268.29Z"/><path class="cls-13" d="M281.34,242.9s-18,18.24,2.1,46.87,15.63,42.63,15.63,42.63S333.43,287.82,281.34,242.9Z"/><path class="cls-14" d="M305.36,324.18c10.15,2.86,3.38-27.3-11.4-37.6s-28.54-12.22-36.54-21.68C257.42,264.9,255.36,310.11,305.36,324.18Z"/><rect class="cls-45" x="226.56" y="366.84" width="246.13" height="4.3"/><path class="cls-5" d="M219,393.32s-2.31,3.9-3.28,4.54c-1.32.86-.49,1.74.13,1.74s3.83.23,4.54-.57,1.05-3.2,1.71-3.83,1.33-3.12-.32-3.72C220.34,390.94,219,393.32,219,393.32Z"/><path class="cls-52" d="M220,391.6s-2.63,4.57-3.09,5.25.86.67,1.67.35,2.85-3.6,3.15-4.2a2.17,2.17,0,0,0,.06-1.52Z"/><polygon class="cls-5" points="222.69 394.06 222.08 398.75 221.75 398.76 221.85 395.39 222.69 394.06"/><path class="cls-5" d="M241.85,393.32s-2.3,3.9-3.27,4.54c-1.32.86-.5,1.74.13,1.74s3.83.23,4.54-.57,1.05-3.2,1.71-3.83,1.35-3.18-.32-3.72C243.17,391,241.85,393.32,241.85,393.32Z"/><path class="cls-53" d="M242.71,391.61s-2.5,4.56-3,5.24.85.67,1.67.35,2.85-3.6,3.14-4.2a2.2,2.2,0,0,0,.07-1.52Z"/><polygon class="cls-5" points="245.52 394.06 244.91 398.75 244.59 398.76 244.69 395.39 245.52 394.06"/><path class="cls-52" d="M252.07,357.79l-20.84,9.49a4,4,0,0,0-2.59,3.34c-.81,8.07-6.84,20.86-6.84,20.86-1.94.94-1.79.12-1.79.12,1.22-3.91,2.71-20.05,3.24-26.53.11-1.38.18-2.32.19-2.62s.24-.47.62-.78c2.86-2.32,14.63-7.12,14.63-7.12C247.52,354.32,252.07,357.79,252.07,357.79Z"/><path class="cls-53" d="M256,361.87c-.65,5.63-8.69,5-8.69,5h-9.74a61,61,0,0,1,3.55,10.5c1,5.1,3.52,14.13,3.52,14.13s-.16.3-1.93.13c0,0-7.65-15.25-10.58-19.08a25.8,25.8,0,0,1-2.74-8c-.11-.9,0-1.6.29-1.88s1.12-.81,2.15-1.47c3.06-1.92,8.36-4.89,11.31-5.55,4-.89,10.21-2.56,10.21-2.56A10.8,10.8,0,0,1,256,361.87Z"/><path class="cls-54" d="M249.37,318.48a9,9,0,0,0,.74-5.72c-.71-2.95-3.44-5.89-7.45-4.54s-7.25,4.46-4.84,8.06-2.18,5.23-1,6.94.72,3.5.23,3.9-2.09,1.82-1.91,3.5,7.77-4.9,7.77-4.9S247,317.4,249.37,318.48Z"/><path class="cls-55" d="M237.15,353.87s.61,2.93,16.17-.77C253.32,353.1,248.1,351.37,237.15,353.87Z"/><path class="cls-5" d="M253.5,353.92l.72,1.39-17.07.49c.9-3,.61-7.09.45-10.19-.19-3.78-2.28-6.41-2.06-10.24l-2.44.39c1.72-4.91,2.31-7.35,7.67-9.24a10.12,10.12,0,0,1,4.77-.58c6.21.51,8.08.59,11.12,6.21-4.77.76-4,2.47-5.43,7.21-.7,2.32-1.44,4.9-1.06,7.34S253.5,351.73,253.5,353.92Z"/><path class="cls-1" d="M243.6,327.71c2.54-.48,2-1.89,2-1.89s-.12-.79-.16-1.8c0-.26,0-.53,0-.81a10.48,10.48,0,0,1,.07-1.25c.21-1.7-4.61-.68-4.61-.68s.28,3.45-.39,4.48S241.06,328.19,243.6,327.71Z"/><path class="cls-1" d="M248.44,325.81s-5.12,5.92-7,7.29c0,0-2.17-2-.83-7.16C240.6,325.94,243.07,324.7,248.44,325.81Z"/><path class="cls-1" d="M248.3,311.58s2.66,5.13,0,10-7.82-2.11-8.16-2.93-2.11-5.44,1.42-6.85S247.55,310.19,248.3,311.58Z"/><path class="cls-54" d="M247.42,313.4a11.63,11.63,0,0,1,2.05,4.18,9.5,9.5,0,0,0-1.33-6.58c-2.07-3.23-7.3-.16-8,1.13s-2.75,2.43.7,8C240.83,320.1,247,315.78,247.42,313.4Z"/><path class="cls-9" d="M243.17,322.07a5,5,0,0,0,2.27,1.95c0-.26,0-.53,0-.81A4.26,4.26,0,0,1,243.17,322.07Z"/><path class="cls-1" d="M270,349.32s1.27.56,1.87.3a5.66,5.66,0,0,1,1.82-.3c.39,0,1.61-.44,1.59,0s-2,.81-2.39,1,1.2,1,1.35,1.42-1.66,3-2.68,2.24-1.58-2.2-1.79-2.29-.76-.51-.76-.51Z"/><path class="cls-1" d="M274.09,351.52a26,26,0,0,1,3,2.79c0,.33-.11.48-.4.27l-2.94-2.3s3,3.51,3.07,3.77-.22.47-.39.37-3.32-3.4-3.32-3.4,2.76,3.28,2.78,3.52a.32.32,0,0,1-.54.22c-.23-.23-3-3.12-3-3.12a16.27,16.27,0,0,1,1.74,2.74c-.07.13-.31.42-.76-.25s-1.71-2.12-1.71-2.12Z"/><path class="cls-56" d="M238.58,366.85h8.73s8,.65,8.69-5a10.76,10.76,0,0,0-2.65-8.76s-4.24,1.13-7.95,2a28.84,28.84,0,0,0-6.71-.58s-15.72,5.19-15.25,7.93C223.44,362.48,230,359,238.58,366.85Z"/><polygon class="cls-57" points="244.27 357.1 227.62 356.86 236.03 361.12 244.27 357.1"/><path class="cls-5" d="M239.1,355a14.22,14.22,0,0,0,8.33.14l.21-1.71-9.45.52Z"/><polygon class="cls-58" points="236.03 361.12 244.27 357.93 244.27 357.1 235.38 360.31 236.03 361.12"/><path class="cls-7" d="M239.15,355.77a.81.81,0,0,1-1.14.81l-1-.41a.69.69,0,0,1-.41-.74c.41-2.52,1.27-12.32,0-14a5.81,5.81,0,0,1-.92-1.64c-.84,2.15-1.87,4.91-2.28,6.4l-7.87,10.46-2.63.67a89.32,89.32,0,0,1,5.93-12.13c.51-1.38,2-5.56,3.3-9.29.82-2.35,1.58-4.52,2-5.68a2.62,2.62,0,0,1,1.15-1.41c1.21-.73,3.24-1.88,5.08-2.77h0l.17-.09h0c-3.5,5.3-2.14,20.25-1.45,29.81Z"/><path class="cls-7" d="M252.14,326.39c1.12.18,3.9,2.87,5.38,5.6,1.68,3.11,3.4,6.64,4.68,7.81,2.36,2.14,9,9.71,9.29,9.52a20.26,20.26,0,0,1-2.06,2.37c-.12.06-10.87-9.26-11.9-10.68s-3.6-7-4.38-6.86h0a42.59,42.59,0,0,0-1.92,5.21c0,.05,0,.1,0,.15a16.73,16.73,0,0,0-.23,7,23.58,23.58,0,0,0,2.57,6.65,1,1,0,0,1,0,.8h0a.56.56,0,0,1-.29.34l-3.15,1.17-.74.27a1.6,1.6,0,0,1-1.52-.21,1.59,1.59,0,0,1-.65-1.09c-.7-5.4-1.59-10.91-2.3-13a19.66,19.66,0,0,1,1.22-16A60.2,60.2,0,0,1,252.14,326.39Z"/><polygon class="cls-59" points="236.03 361.12 231.08 347.61 215.12 347.87 219.84 360.32 236.03 361.12"/><path class="cls-60" d="M226,353.59c.49,1,.34,2-.33,2.36s-1.6-.18-2.09-1.15-.34-2,.33-2.37S225.48,352.61,226,353.59Z"/><path class="cls-54" d="M242.79,316.69a2.87,2.87,0,0,0-.08,3c.95,1.37-.23,2.72-.44,4.17s3.94,5.31-.67,7.26-6.08-1.27-4.9-3a10,10,0,0,0,2.11-5.72C238.91,319.8,239.74,315.87,242.79,316.69Z"/><polygon class="cls-61" points="265.33 310.08 255.71 310.08 255.71 317.06 255.71 318.53 257.18 317.06 265.33 317.06 265.33 310.08"/><path class="cls-62" d="M15.47,116.66s-.38-1.07-.89-2.94l.65-.18c.51,1.85.88,2.89.88,2.9Z"/><path class="cls-62" d="M279.3,184.81l-.18-.66c1.92-.5,3.87-1.08,5.81-1.7l.21.64C283.19,183.72,281.23,184.3,279.3,184.81Zm11.58-3.75-.25-.63c1.87-.72,3.75-1.5,5.6-2.32l.27.62C294.64,179.56,292.75,180.34,290.88,181.06ZM302,176.13l-.3-.61c1.79-.9,3.59-1.87,5.33-2.86l.34.59C305.61,174.25,303.81,175.22,302,176.13Zm10.59-6-.36-.57c1.7-1.08,3.39-2.22,5-3.37l.39.55C316,167.89,314.3,169,312.59,170.12Zm9.93-7-.42-.53c1.59-1.26,3.15-2.56,4.64-3.88l.44.51C325.69,160.51,324.12,161.83,322.52,163.09Zm9.11-8.06-.48-.48c1.44-1.43,2.84-2.91,4.16-4.39l.5.45C334.49,152.1,333.08,153.59,331.63,155Zm8.06-9.11-.53-.42c1.24-1.61,2.42-3.27,3.5-4.92l.57.37C342.14,142.62,341,144.29,339.69,145.92Zm6.66-10.2-.6-.32c1-1.79,1.85-3.62,2.62-5.43l.63.26C348.22,132.06,347.33,133.91,346.35,135.72Zm4.74-11.21-.64-.2a56.56,56.56,0,0,0,1.45-5.84l.66.12A52.74,52.74,0,0,1,351.09,124.51Zm2.25-12-.68,0c.08-1.1.12-2.22.12-3.32,0-.9,0-1.8-.08-2.7l.68,0c.05.91.07,1.83.07,2.74C353.45,110.29,353.42,111.43,353.34,112.54ZM13.16,107.8c-.4-2-.75-4-1-6l.67-.1c.29,2,.64,4,1,6ZM352,100.5a50.81,50.81,0,0,0-1.42-5.85l.64-.2a50.17,50.17,0,0,1,1.44,5.93ZM11.43,95.76c-.17-2-.28-4.07-.33-6.08l.68,0c.05,2,.16,4,.33,6ZM348.49,89c-.74-1.72-1.59-3.45-2.52-5.15l-.14-.26.59-.33.14.26c.95,1.72,1.81,3.47,2.56,5.21ZM11.82,83.62l-.68,0c.08-2,.23-4.08.44-6.07l.67.07C12,79.57,11.9,81.6,11.82,83.62Zm330.88-5.2c-1.12-1.69-2.3-3.33-3.52-4.87l.53-.42c1.23,1.55,2.43,3.21,3.56,4.92ZM13.09,71.61l-.67-.12c.36-2,.78-4,1.28-6l.65.17C13.86,67.63,13.44,69.61,13.09,71.61ZM335.23,69c-1.39-1.45-2.86-2.83-4.37-4.13l.44-.51c1.53,1.31,3,2.71,4.42,4.17Zm-9.13-7.8C324.48,60.08,322.77,59,321,58l.33-.59c1.78,1,3.51,2.09,5.15,3.23Zm-310-1.31-.64-.21c.65-1.93,1.38-3.84,2.17-5.7l.62.27C17.42,56.1,16.69,58,16.05,59.9Zm299.59-4.61c-1.77-.81-3.65-1.58-5.59-2.29l.24-.63c1.95.71,3.84,1.48,5.64,2.3Zm-11.32-4.17c-1.85-.55-3.82-1.07-5.84-1.56l.16-.65c2,.48,4,1,5.87,1.56ZM20.79,48.81l-.6-.32c.95-1.79,2-3.56,3.06-5.27l.57.37C22.75,45.28,21.73,47,20.79,48.81Zm271.77-.53c-1.88-.37-3.83-.72-6-1.07l.12-.67c2.12.35,4.08.7,6,1.08Zm-11.95-2c-1.78-.26-3.75-.53-6-.83l.09-.67c2.25.3,4.22.57,6,.83Zm-12-1.62-.19,0-5.83-.76.09-.67,5.83.76.19,0Zm-12-1.61c-2.15-.3-4.12-.6-6-.9l.11-.67c1.89.3,3.85.6,6,.9Zm-12-1.92c-2-.38-4.05-.77-6-1.17l.14-.67c1.9.41,3.9.8,5.94,1.17ZM27.27,38.63l-.54-.41c1.21-1.6,2.51-3.19,3.86-4.71l.51.45C29.76,35.47,28.47,37,27.27,38.63Zm205.41,0c-2-.49-4-1-5.87-1.57l.18-.65c1.89.54,3.86,1.07,5.85,1.56ZM221,35.23c-1.93-.65-3.86-1.35-5.71-2.07l.24-.63c1.85.72,3.76,1.41,5.69,2Zm-11.32-4.41c-1.86-.83-3.7-1.71-5.49-2.62l.31-.61c1.78.91,3.61,1.79,5.45,2.61ZM35.28,29.61l-.47-.49c1.44-1.39,3-2.76,4.53-4.07l.43.52C38.22,26.87,36.7,28.23,35.28,29.61Zm163.58-4.32c-1.11-.65-2.23-1.33-3.31-2-.62-.39-1.25-.78-1.87-1.15l.35-.58c.63.38,1.25.76,1.88,1.16,1.08.68,2.19,1.35,3.29,2ZM44.55,21.87l-.4-.55c1.62-1.17,3.32-2.32,5.05-3.4l.36.57C47.84,19.57,46.16,20.71,44.55,21.87Zm143.89-2.78c-1.75-1-3.55-1.91-5.35-2.81l.3-.61c1.81.9,3.62,1.85,5.38,2.83ZM54.77,15.43l-.32-.59c1.75-1,3.58-1.89,5.42-2.77l.29.61C58.33,13.55,56.52,14.48,54.77,15.43Zm122.85-1.74c-1.83-.81-3.71-1.61-5.58-2.35l.26-.63c1.87.75,3.75,1.54,5.59,2.37ZM65.69,10.24l-.26-.63c1.86-.76,3.77-1.48,5.69-2.16l.23.64C69.44,8.76,67.53,9.48,65.69,10.24Zm100.69-1c-1.89-.67-3.82-1.3-5.75-1.89l.2-.65c1.93.59,3.88,1.23,5.77,1.9Zm-89.28-3-.19-.65C78.83,5,80.81,4.47,82.78,4l.16.66C81,5.13,79,5.66,77.1,6.23Zm77.71-.57c-1.94-.52-3.92-1-5.88-1.43l.15-.66c2,.44,4,.92,5.91,1.43Zm-66-2.32-.13-.67c2-.38,4-.74,6-1l.1.67C92.82,2.6,90.81,3,88.85,3.34ZM143,3c-2-.35-4-.67-6-.94l.1-.67c2,.27,4,.59,6,1ZM100.81,1.52l-.07-.68c2-.21,4-.39,6.06-.52l0,.67C104.83,1.12,102.8,1.3,100.81,1.52ZM131,1.39c-2-.2-4-.35-6-.47l0-.68c2,.12,4,.28,6.06.47ZM112.89.72l0-.68c2,0,4,0,6.08,0V.7C116.92.66,114.89.67,112.89.72Z"/><path class="cls-62" d="M270.11,186.75l-.1-.67c1-.16,2-.33,3-.53l.13.67C272.12,186.41,271.11,186.59,270.11,186.75Z"/><polygon class="cls-63" points="280.32 117.16 271.67 110.23 276.11 104.67 284.94 111.39 280.32 117.16"/><polygon class="cls-64" points="280.09 116.44 272.41 110.29 276.36 105.36 284.19 111.32 280.09 116.44"/><polygon class="cls-63" points="281.12 114.77 281.66 115.2 283.26 113.2 282.78 112.69 281.12 114.77"/><path class="cls-65" d="M267.72,132.16s.07,1.57.1,2.22.54.93.1,1a5.84,5.84,0,0,0-2.3,1.5c-.36.59-2.46,4.51-3.43,4.26s-.61-2.3.22-5.08.14-3.09,1.25-4.75C264,130.84,267.72,132.16,267.72,132.16Z"/><polygon class="cls-1" points="268.89 132.21 267.72 132.16 267.8 135.1 268.94 135.17 268.89 132.21"/><path class="cls-65" d="M315.79,149.62l1.84-1.19c.54-.36.52-.91.83-.6a5.65,5.65,0,0,0,2.41,1.21c.68,0,5-.13,5.3.82s-1.65,1.65-4.41,2.31-2.7,1.4-4.65,1.28C316.51,153.41,315.79,149.62,315.79,149.62Z"/><polygon class="cls-1" points="315.33 148.79 315.88 149.78 318.25 148.22 317.72 147.26 315.33 148.79"/><path class="cls-66" d="M298.81,122.76c-.42.39-1.1,1.12-1.86,2l-1,1.08c-1.56,1.78-3.11,3.61-3.11,3.61s-6.7,7-9,7.29c-4.49.63-16.33-1.16-16.33-1.16V131a68.93,68.93,0,0,0,9.62.52c3.38-.31,5.46.27,7-2.07,1-1.56,3.79-7.12,3.82-7.17,1.15-2.84,2.8-6.48,4-7.4C293.12,114.05,298.81,122.76,298.81,122.76Z"/><path class="cls-66" d="M311.47,131.3c-.22-1.48-2.65-5.31-4.36-7.59h0c-2.7-3.65-4.51-6.54-4.51-6.54s-12.3,1.19-12.05,2.4c.47,2.29,6.28,4.91,7.35,5.76l2.23,1.55s2.21,1.58,3.83,3c2.18,1.87,1.8,2.85,3.17,5.65,1.22,2.51,8.22,14.87,8.22,14.87l3.77-2.33S311.82,133.6,311.47,131.3Z"/><path class="cls-1" d="M318,106.06a11.82,11.82,0,0,1-1.59.16c-.57,0,.61-1.75.61-1.75Z"/><path class="cls-1" d="M316.78,104l.76-1.65a3.86,3.86,0,0,1,1.39-.87,4.36,4.36,0,0,1,1.92-.38.64.64,0,0,1,.39.4,1.24,1.24,0,0,1,.08.65.78.78,0,0,1,.25.73.68.68,0,0,1,.13.75.59.59,0,0,1,.13.63,4.91,4.91,0,0,0-.76.52,15.29,15.29,0,0,1-3.11,1.28S317,106,316.78,104Z"/><path class="cls-67" d="M318.91,103.3a3.81,3.81,0,0,1-.14,1c-.12.22,1.57.79,1.57.79S319.87,103.35,318.91,103.3Z"/><path class="cls-4" d="M320.66,101.17s-1.76.87-1.66,1.17a.49.49,0,0,0,.33.35l-.56.69s-.12.66.64.6c0,0-.17.6.55.45,0,0,.07.46.41.44a6.5,6.5,0,0,0,1.46-.61s.18-.24-.13-.63a.66.66,0,0,0-.13-.75.74.74,0,0,0-.25-.73s.2-.83-.47-1.05Z"/><path class="cls-1" d="M317.59,102.32a6.75,6.75,0,0,1,2.08.35c.17.08.31.18.31.37s-.28.4-.87.42a5,5,0,0,0-1.33.31S317.18,103.62,317.59,102.32Z"/><path class="cls-66" d="M301.13,98.38a54.22,54.22,0,0,0,5.67,7.36c.77.74,9.72-2.15,10-1.86a11.66,11.66,0,0,1,.37,2.94s-11.16,3.75-11.73,3.4-7.67-8.49-8-9.61-.23-2.46.92-3A2.38,2.38,0,0,1,301.13,98.38Z"/><path class="cls-68" d="M303.54,95.88a24.79,24.79,0,0,1,.65,5.87c-.21,2.08-2.35,7.39-2.51,8.55s.92,6.87.92,6.87l-12.87,2a73,73,0,0,1,.49-7.3c.47-4,2-7.09,2.49-9.33,1.78-7.63,8.29-8.69,8.29-8.69Z"/><path class="cls-1" d="M309.77,87.41s.83,2,.29,2.28.27,2.18.36,2.5-.82.45-1,.63-1,2.56-1.77,2.56a11,11,0,0,1-4.73-2.53c-.8-1-1.09-5.33-.3-7S308.29,83.86,309.77,87.41Z"/><path class="cls-1" d="M305.47,94.62l-.27.48-.23.41-.2.37a12.76,12.76,0,0,0-1,2.27c-.2.93-2.31-4.28-2.31-4.28A45.74,45.74,0,0,0,304.18,88C305.4,84.78,305.47,94.62,305.47,94.62Z"/><path class="cls-27" d="M309.93,87.85a3,3,0,0,0-.48-3.71c-1.76-1.74-5.59.59-6,.65s-2.72,0-2,4.08c.66,3.6.78,3.45.78,3.45a8.59,8.59,0,0,1,1.35-1.93,4,4,0,0,1,2.12-.14s-.49-1.88.59-2S308.9,87.34,309.93,87.85Z"/><path class="cls-1" d="M304.7,89.1c-.06-.26-.25-1.35-1.23-.83s.29,2.69.45,2.73S305.27,91.26,304.7,89.1Z"/><path class="cls-7" d="M301.67,93.44a16.73,16.73,0,0,0,2.47,4.16l-.54,1.85L301,93.8Z"/><polygon class="cls-69" points="302.6 117.17 302.38 115.97 289.76 117.81 289.72 119.22 302.6 117.17"/><path class="cls-70" d="M303.2,103.17c-.33.66-.64,1.34-.93,2h0c-.65,1.5-1.23,3-1.74,4.51-.18.54-.35,1.06-.52,1.59a31.4,31.4,0,0,1-5.85,10.5s-5.05-.94-6.14-1.9a91,91,0,0,1,3.46-14.15c.18-.53.37-1,.57-1.58h0c2.1-5.51,5.05-10.36,8.95-10.36C301.07,93.9,304.91,99.67,303.2,103.17Z"/><path class="cls-70" d="M291.31,106.24a39.41,39.41,0,0,1-5.85,12.86c-.56.76,5.5,2,5.5,2Z"/><path class="cls-71" d="M297.05,100.64c-1.71,1.5-5.57,5.1-5.57,5.1.18-.53.37-1,.57-1.58h0C293.39,103.08,297,100.68,297.05,100.64Z"/><path class="cls-9" d="M305.47,94.62l-.27.48-.23.41A6.79,6.79,0,0,1,303,93,18.17,18.17,0,0,0,305.47,94.62Z"/><path class="cls-72" d="M304.17,99.41s-1.15,4.5-5.12,4.4c-3.55-.09-8.85,1.14-10.65,2.32l-2.24,1.57.74-2.32s1.88-3.6,12.16-2c0,0,3.1.92,4.71-4.47C303.77,98.87,304.26,99.2,304.17,99.41Z"/><path class="cls-72" d="M304.11,97.71a6.07,6.07,0,0,1,.13,1.8c-.05.17-.6-.17-.6-.17Z"/><path class="cls-73" d="M297,124.73l-1,1.08-3.94-4.23s.55.44,1.23.93S297,124.73,297,124.73Z"/><path class="cls-29" d="M274.49,113.2a2,2,0,0,1,.2-.57s.24-.27.4-.48a2,2,0,0,0,.12-.17,3.72,3.72,0,0,1,.62-.92c.35-.34,1.71-1.43,1.71-1.43l1.14,1,1.18.56a22.6,22.6,0,0,1-1,3.26l-.09.09a4.55,4.55,0,0,1-.76.5c-.06,0-.69.48-.9.42a.73.73,0,0,1-.55-.47,1.8,1.8,0,0,1-.81-.54,1.09,1.09,0,0,1-.69-.68S274.51,113.55,274.49,113.2Z"/><path class="cls-70" d="M300,98.77s-7.91,2.88-11,4.86c-1,.62-8,7.67-8.43,7.9s-3.28-1.81-3.28-1.81,8.55-8.92,9.07-9.43,12.43-6.1,13.71-6.17,1.25.56,1.51,1.91A2.59,2.59,0,0,1,300,98.77Z"/><path class="cls-74" d="M247.21,247.59c-.8,3.93,1,7.62,4.09,8.24s6.2-2.05,7-6-1-7.61-4.09-8.24S248,243.66,247.21,247.59Z"/><path class="cls-8" d="M368.27,240.42s10.09-29.58-9.16-38.75-35.59,4.09-38.68,11.26-2.27,20.22.36,29.31,2.25,22.94-3.47,27.57-12.81,12.33-12.46,28c.22,9.71,38.22-24.84,38.22-24.84Z"/><path class="cls-61" d="M341.22,275.61s-15.82,3.51-22.1,7.18S298.9,303.34,298.9,310.6s61,14,61,14l11.55,42.2s30.83-7.52,34.5-13.76-11.71-50.95-14.34-60c-2.68-9.23-13.73-15.67-26.58-17.47A88.19,88.19,0,0,0,341.22,275.61Z"/><path class="cls-1" d="M363.93,275.47s-.36,19.22-15.61,19.8-12.08-18.45-12.08-18.45S347.4,272.3,363.93,275.47Z"/><path class="cls-8" d="M370.38,217.44s5.39,30.93-10,53.27C344.5,293.85,370.38,217.44,370.38,217.44Z"/><path class="cls-1" d="M360.65,261.87s-1.06,9.2.71,14.92S338,282.67,338.06,278c0-5.34,2.57-9.8.16-19S360.65,261.87,360.65,261.87Z"/><path class="cls-9" d="M341.19,263s7.92,8.26,18.05.86c0,0-.83,5.28-8.12,6S341.19,263,341.19,263Z"/><path class="cls-1" d="M351.11,206.71s20,5.93,17.16,33.71S352.34,266.77,351.11,267s-16.75,1.22-21.65-32.48S351.11,206.71,351.11,206.71Z"/><path class="cls-8" d="M345.94,219.1s10.88,17.31,22.33,21.32c0,0,6.25-29-19.57-35.12s-21.77,29.33-19.85,38.77A76.81,76.81,0,0,1,345.94,219.1Z"/><path class="cls-75" d="M331.35,216.5s5.73-11.09,15.4-11.59,15.42,7.89,15.42,7.89a16.45,16.45,0,0,0-15.41-9.44C335.13,203.36,331.35,216.5,331.35,216.5Z"/><polygon class="cls-22" points="370.71 303.72 377.5 366.84 288.14 366.84 281.35 303.72 370.71 303.72"/><rect class="cls-22" x="369.69" y="361.16" width="14.92" height="5.68"/><path class="cls-74" d="M335,334.26c.8,3.93-1,7.62-4.09,8.24s-6.2-2.05-7-6,1-7.62,4.09-8.25S334.17,330.33,335,334.26Z"/></g></g></svg>